<svg width="147" height="149" viewBox="0 0 147 149" fill="none" xmlns="http://www.w3.org/2000/svg">
<circle cx="73.5" cy="73.5" r="2.5" fill="#A86649"/>
<path d="M26.0692 66.1882C25.9874 66.3996 25.8512 66.5515 25.6606 66.6438C25.4555 66.7139 25.2592 66.8337 25.0717 67.0031C24.8711 66.9595 24.5613 66.8445 24.1424 66.658C23.709 66.4494 23.2885 66.2244 22.8809 65.9831C22.4551 65.7378 22.1513 65.5477 21.9695 65.4127C21.5103 65.2367 21.0788 65.0188 20.675 64.7592C20.275 64.4814 19.8765 64.2421 19.4796 64.0413C19.1337 63.8707 18.8041 63.7132 18.4908 63.5688C18.1814 63.4061 17.881 63.2454 17.5898 63.0867C17.3715 62.9438 17.2168 62.8624 17.1256 62.8426C17.0161 62.8189 16.9378 62.7828 16.8907 62.7343C16.829 62.6636 16.7661 62.5067 16.702 62.2636C16.8165 62.0784 16.8999 61.9055 16.9521 61.7449C16.9899 61.5621 16.9783 61.3877 16.9173 61.2216C16.9028 61.1994 16.9311 61.0623 17.0023 60.8103C17.0589 60.5361 17.1212 60.2345 17.1892 59.9054C17.2572 59.5764 17.2991 59.3276 17.3148 59.1591C17.3494 58.8992 17.4278 58.6584 17.5498 58.4366C17.6719 58.2148 17.7613 57.9667 17.8179 57.6925C18.0174 57.3729 18.2294 57.0847 18.454 56.8279C18.6786 56.571 18.9265 56.3861 19.1976 56.273C19.4543 56.1377 19.754 56.1169 20.0968 56.2104C20.3629 56.3063 20.6419 56.386 20.9337 56.4494C21.2256 56.5127 21.4841 56.6453 21.7093 56.847C21.8879 56.9048 22.17 57.0616 22.5556 57.3172C22.9229 57.5689 23.3176 57.8264 23.7397 58.09C24.1473 58.3313 24.4932 58.5019 24.7775 58.6018C24.9015 58.6478 25.0178 58.7304 25.1266 58.8495C25.221 58.9464 25.343 59.0015 25.4927 59.0149C25.6789 59.0363 25.9013 59.1132 26.1598 59.2457C26.4038 59.356 26.5856 59.491 26.7051 59.6506C26.8535 59.8547 26.8849 60.0717 26.7994 60.3014C26.6955 60.5272 26.5427 60.7136 26.3407 60.8608C26.1243 60.9857 25.9085 61.0153 25.6934 60.9495C25.4745 60.9019 25.2119 60.8354 24.9056 60.7498C24.5848 60.6419 24.3077 60.5531 24.0743 60.4833C23.9731 60.3277 23.8677 60.2379 23.7583 60.2142C23.6344 60.1682 23.5104 60.1222 23.3865 60.0762C23.0374 59.8285 22.588 59.559 22.0383 59.2677C21.4741 58.9543 20.9297 58.6833 20.4051 58.4548C19.8805 58.2263 19.4921 58.1228 19.2398 58.1445C19.1794 58.437 19.1183 58.8248 19.0566 59.308C18.9767 59.7873 18.9134 60.232 18.8668 60.6421C18.8057 61.0299 18.7714 61.2421 18.7638 61.2787C18.767 61.3558 18.7994 61.4297 18.861 61.5003C18.9044 61.5671 18.9534 61.6064 19.0082 61.6182C19.4491 61.7904 19.8696 62.0154 20.2696 62.2932C20.6514 62.5671 21.0609 62.7993 21.4981 62.9897C21.622 63.0357 21.8277 63.1472 22.1151 63.3242C22.3843 63.4972 22.6862 63.6965 23.0208 63.9219C23.341 64.1252 23.663 64.3192 23.987 64.5042C24.2927 64.6851 24.5458 64.7974 24.7465 64.8409C24.8591 64.9418 24.9937 65.0283 25.1503 65.1005C25.3069 65.1727 25.5129 65.2366 25.7683 65.292C25.9105 65.342 25.9957 65.4369 26.024 65.5767C26.0523 65.7166 26.0673 65.9204 26.0692 66.1882Z" fill="#A86649"/>
<path d="M33.9185 61.9162C33.8902 61.9852 33.8548 62.0716 33.8123 62.1752C33.787 62.2863 33.6795 62.3517 33.4898 62.3717C33.3758 62.4038 33.2295 62.3916 33.051 62.3351C32.8795 62.2613 32.5886 62.0852 32.1783 61.8069C31.9222 61.595 31.659 61.4004 31.3888 61.2231C31.1357 61.0532 30.9406 60.9387 30.8034 60.8796C30.7349 60.8501 30.6048 60.7737 30.4132 60.6506C30.2458 60.5176 30.1193 60.4326 30.0336 60.3957C29.9318 60.2503 29.7715 60.1 29.5527 59.9448C29.3339 59.7896 29.1302 59.6714 28.9417 59.5902C28.7359 59.5016 28.5898 59.3168 28.5033 59.0357C28.3661 58.9766 28.2053 58.8769 28.0208 58.7365C27.8434 58.5788 27.7204 58.4852 27.6518 58.4557C27.433 58.3005 27.0589 58.0074 26.5297 57.5762C25.9903 57.1205 25.388 56.5969 24.7226 56.0056C24.0643 55.397 23.4197 54.8045 22.7886 54.2279C22.1576 53.6514 21.6273 53.1488 21.1979 52.72C20.8028 52.306 20.4479 51.9907 20.1334 51.7739C19.8087 51.5325 19.5607 51.3749 19.3892 51.3011C19.3206 51.2716 19.2763 51.2321 19.2561 51.1828C19.2189 51.1261 19.1564 51.0078 19.0688 50.8278C18.9681 50.5813 18.9769 50.4123 19.095 50.3209C19.2202 50.2123 19.3903 50.0925 19.6053 49.9615C19.8848 49.9193 20.1123 49.9055 20.2879 49.9202C20.4705 49.9175 20.7362 50.0319 21.0851 50.2635C21.3423 50.3742 21.5475 50.5133 21.7007 50.6809C21.8539 50.8485 21.9678 50.989 22.0423 51.1024C22.0997 51.2084 22.1269 51.2404 22.1239 51.1985C22.0884 50.35 22.1717 49.6544 22.374 49.1115C22.5662 48.544 22.8481 48.1269 23.2196 47.8602C23.581 47.5687 23.9893 47.4092 24.4443 47.3817C24.8994 47.3541 25.3755 47.4473 25.8727 47.6614C26.0784 47.75 26.3093 47.9002 26.5654 48.1121C26.8043 48.3166 27.0155 48.5396 27.1989 48.7811C27.3722 48.998 27.4891 49.1804 27.5495 49.3284C27.5212 49.3975 27.5529 49.4924 27.6446 49.6132C27.7191 49.7265 27.8108 49.8473 27.9197 49.9755C28.0345 50.1875 28.1397 50.4969 28.2351 50.9038C28.3206 51.286 28.3717 51.6535 28.3885 52.0062C28.3882 52.3515 28.334 52.5822 28.226 52.6982C28.226 52.6982 28.2239 52.7278 28.2198 52.787C28.2057 52.8216 28.2415 52.8573 28.3272 52.8942C28.3615 52.909 28.382 53.0804 28.3888 53.4084C28.3784 53.7291 28.3503 54.0929 28.3046 54.4999C28.2416 54.8996 28.1536 55.2376 28.0403 55.5139C27.8917 55.8767 27.7169 56.1062 27.5161 56.2026C27.5362 56.2519 27.57 56.3173 27.6173 56.3986C27.6717 56.4627 27.7247 56.5058 27.7761 56.528C27.879 56.5723 28.0584 56.7003 28.3145 56.9122C28.5605 57.0994 28.7909 57.3002 29.0056 57.5146C29.2203 57.729 29.3099 57.8793 29.2745 57.9657C29.2745 57.9657 29.2932 57.994 29.3305 58.0507C29.3677 58.1074 29.4434 58.1197 29.5574 58.0875C29.5574 58.0875 29.6482 58.1367 29.8297 58.2352C30.0354 58.3238 30.1892 58.4408 30.291 58.5862C30.4281 58.6453 30.6232 58.7598 30.8763 58.9297C31.1294 59.0997 31.3104 59.2487 31.4192 59.3769C31.625 59.4655 31.808 59.5849 31.9682 59.7352C32.1527 59.8756 32.2308 59.9804 32.2025 60.0495C32.1914 60.1259 32.2765 60.2134 32.4581 60.3119C32.6567 60.4178 32.7989 60.4891 32.8846 60.5261C33.3062 60.7279 33.6051 60.9582 33.7814 61.217C33.9578 61.4758 34.0034 61.7089 33.9185 61.9162ZM26.6136 55.0825C26.6702 54.9443 26.727 54.6335 26.7839 54.15C26.8409 53.6665 26.8756 53.1633 26.8882 52.6403C26.8907 52.0928 26.8437 51.6661 26.7471 51.3604C26.5368 50.7415 26.2326 50.2041 25.8345 49.7482C25.4263 49.2676 24.9306 49.0745 24.3474 49.1688C24.0507 49.2036 23.8538 49.4134 23.7566 49.7983C23.6423 50.1758 23.6166 50.6321 23.6797 51.1673C23.7428 51.7025 23.8765 52.2376 24.0808 52.7726C24.2188 53.0759 24.4152 53.384 24.6702 53.697C24.9252 54.01 25.1908 54.2971 25.467 54.5583C25.7502 54.8022 25.9998 54.9807 26.2156 55.094C26.4314 55.2072 26.5641 55.2034 26.6136 55.0825Z" fill="#A86649"/>
<path d="M31.3327 49.6999C31.169 49.6763 31.0255 49.6896 30.9022 49.7398C30.7636 49.7794 30.6638 49.7777 30.6026 49.7348C30.5415 49.692 30.4752 49.6569 30.4037 49.6295C30.3273 49.5759 30.2378 49.5587 30.1352 49.5779C29.9917 49.5912 29.7906 49.4388 29.5319 49.1205C29.2578 48.7915 28.9565 48.3522 28.6279 47.8025C28.284 47.2421 27.943 46.6268 27.6051 45.9567C27.5657 45.7467 27.4882 45.5099 27.3724 45.2464C27.2567 44.9828 27.189 44.7985 27.1693 44.6936C27.1082 44.6507 27.0702 44.5899 27.0555 44.5111C27.0255 44.4217 27.0312 44.3459 27.0726 44.2838L26.9351 44.1873C26.8587 44.1337 26.7754 43.9727 26.6853 43.7044C26.6056 43.4205 26.5313 43.0948 26.4624 42.7274C26.3783 42.3492 26.3146 41.974 26.2714 41.6018C26.2129 41.2188 26.1897 40.9176 26.2016 40.698C26.2053 40.2219 26.2982 39.797 26.4804 39.4233C26.6729 39.034 26.9514 38.7849 27.3159 38.6758C27.3929 38.6614 27.5211 38.6374 27.7006 38.6038C27.8801 38.5701 28.0853 38.5317 28.3161 38.4884C28.542 38.4189 28.7755 38.3548 29.0167 38.296L30.3483 37.965L31.2146 39.1882C31.6912 39.8188 32.1897 40.2483 32.7104 40.4768C33.2414 40.6897 33.7423 40.8132 34.2133 40.8472C34.4332 40.8875 34.6973 40.8448 35.0056 40.7191C35.3242 40.5779 35.5713 40.4093 35.747 40.2134C35.8452 40.0999 35.9688 40.0156 36.1177 39.9606C36.2667 39.9055 36.4252 39.9369 36.5933 40.0548C36.7461 40.162 36.8476 40.2788 36.8979 40.4053C36.9481 40.5317 36.9367 40.6832 36.8636 40.8599C36.5827 41.4151 36.1392 41.8107 35.533 42.0465C34.9372 42.2668 34.1634 42.3167 33.2118 42.1962C33.0786 42.194 32.8535 42.1615 32.5365 42.0986C32.2145 42.0095 32.0101 41.9459 31.9233 41.9079C31.9583 42.0236 32.0257 42.2419 32.1257 42.5627C32.2103 42.8728 32.2674 43.1067 32.2969 43.2641C32.6614 45.1382 32.7652 46.613 32.6083 47.6883C32.4465 48.7373 32.0213 49.4079 31.3327 49.6999ZM30.6087 47.9611C30.7157 48.0361 30.8245 47.8731 30.9352 47.472C31.0409 47.0447 31.0705 46.5298 31.024 45.9273C30.9332 45.0885 30.7966 44.2176 30.6141 43.3146C30.442 42.396 30.2355 41.6129 29.9947 40.9653L29.5115 39.8741C29.0564 39.7828 28.7055 39.7874 28.4589 39.8879C28.2073 39.9622 28.0401 40.0615 27.9572 40.1857C27.8225 40.3875 27.8038 40.8189 27.9011 41.4798C28.0087 42.1252 28.2179 42.8874 28.5286 43.7665C28.8393 44.6455 29.2267 45.5441 29.6908 46.4623C29.8928 46.832 30.0975 47.1807 30.3049 47.5086C30.5075 47.8103 30.6087 47.9611 30.6087 47.9611Z" fill="#A86649"/>
<path d="M39.869 40.1374C39.674 40.3382 39.4138 40.5793 39.0885 40.8606C38.7763 41.1286 38.3463 41.1963 37.7986 41.0639C37.4464 40.9711 37.0941 40.8115 36.7417 40.5852C36.4023 40.3454 36.1998 40.1387 36.1342 39.9652C35.3104 38.751 34.7611 37.8971 34.4862 37.4033C34.2114 36.9095 34.0544 36.6292 34.0152 36.5625C33.9889 36.4824 33.9168 36.3022 33.7989 36.0218C33.6809 35.7147 33.6023 35.5278 33.563 35.4611C33.419 35.1808 33.2034 34.9208 32.9161 34.6809C32.7986 34.5876 32.7137 34.4876 32.6613 34.3808C32.6089 34.2473 32.589 34.107 32.6017 33.96C32.653 33.559 32.6065 33.1516 32.4622 32.7377C32.4097 32.6042 32.3245 32.3705 32.2065 32.0367C32.0884 31.6762 31.9768 31.3224 31.8717 30.9752C31.7667 30.6013 31.7009 30.3342 31.6745 30.1739C31.6213 29.693 31.5355 29.2188 31.4172 28.7514C31.2988 28.2573 31.2586 27.763 31.2966 27.2685C31.1783 26.8011 31.1316 26.3135 31.1566 25.8057C31.1685 25.2845 31.1999 24.7834 31.251 24.3023C31.3021 23.8211 31.3273 23.4202 31.3266 23.0995C31.3263 22.9659 31.4431 22.7251 31.677 22.3772C31.9108 22.0026 32.0926 21.6948 32.2224 21.454C32.2612 21.3337 32.4435 21.213 32.7691 21.0921C33.0816 20.9578 33.3422 20.9037 33.5508 20.93C34.0073 21.0493 34.34 21.1888 34.5489 21.3487C34.7708 21.4952 34.9603 21.742 35.1175 22.0891C35.2746 22.4094 35.4843 22.9434 35.7467 23.6911C36.0091 24.4923 36.1349 25.3806 36.124 26.356C36.113 27.3047 36.0303 28.2069 35.8757 29.0624C35.8507 29.5434 35.7931 30.0179 35.7029 30.4858C35.6257 30.9403 35.5224 31.3814 35.393 31.8093C35.3153 32.0767 35.2247 32.3441 35.121 32.6116C35.0303 32.8657 34.9266 33.1198 34.8098 33.3739C34.7449 33.4943 34.7126 33.6347 34.713 33.795C34.7003 33.9421 34.7332 34.109 34.8118 34.2959C34.9167 34.5629 35.0279 34.7698 35.1456 34.9165C35.2631 35.0365 35.3221 35.1767 35.3225 35.337C35.3226 35.4172 35.4209 35.6374 35.6172 35.9978C35.8134 36.3314 36.0489 36.7318 36.3237 37.1988C36.5984 37.6392 36.8665 38.0461 37.128 38.4197C37.3764 38.7799 37.5594 39.0067 37.6769 39.0999C37.7553 39.1532 37.8401 39.2132 37.9315 39.2798C38.0228 39.3197 38.1336 39.3127 38.2639 39.259C38.4197 39.0181 38.5105 38.7908 38.5361 38.5769C38.5486 38.3498 38.5415 38.0759 38.5147 37.7552C38.4748 37.3945 38.4089 37.0339 38.3169 36.6733C38.2378 36.2994 38.1263 35.9455 37.9821 35.6118C37.8905 35.4116 37.7792 35.2181 37.6485 35.0313C37.5047 34.8312 37.4 34.631 37.3343 34.4307C37.0339 34.124 36.8053 33.904 36.6486 33.7708C36.4918 33.6108 36.3547 33.4975 36.2372 33.4309C36.1197 33.3377 35.9696 33.2511 35.787 33.1714C35.8257 32.9976 35.832 32.884 35.8058 32.8306C35.7926 32.7638 35.8446 32.6969 35.9618 32.6298C36.17 32.4957 36.3914 32.4017 36.6259 32.3478C36.8734 32.2804 37.1406 32.2464 37.4273 32.2458C37.5316 32.2456 37.6164 32.2654 37.6816 32.3054C37.7469 32.3453 37.7992 32.412 37.8385 32.5055C37.9822 32.6788 38.1195 32.8589 38.2503 33.0457C38.381 33.2058 38.5182 33.3591 38.6619 33.5058C38.7407 33.7729 38.865 34.0198 39.035 34.2466C39.1919 34.46 39.3292 34.6936 39.4471 34.9472C39.5389 35.2009 39.6307 35.4545 39.7225 35.7082C39.8143 35.9619 39.88 36.2156 39.9197 36.4694C40.051 36.9234 40.1237 37.3709 40.1377 37.8118C40.1647 38.2393 40.1591 38.6602 40.1209 39.0745L39.869 40.1374ZM33.5356 31.8334C33.7177 31.6994 33.8348 31.5922 33.8868 31.512C33.9387 31.4049 33.9514 31.2579 33.9249 31.0709C34.1312 30.0282 34.292 29.0458 34.4073 28.1236C34.5095 27.188 34.5468 26.3595 34.5192 25.638C34.4914 24.8898 34.3859 24.3154 34.2026 23.915C34.1239 23.7014 34.0582 23.4877 34.0056 23.274C33.966 23.047 33.8743 22.8334 33.7305 22.6333L33.1038 22.1536C32.9095 22.7019 32.7736 23.1632 32.6962 23.5375C32.6318 23.8984 32.6004 24.4262 32.6019 25.1211C32.6025 25.3883 32.6295 25.8158 32.6829 26.4036C32.7363 26.9647 32.8028 27.5926 32.8826 28.2872C32.9623 28.9819 33.055 29.6498 33.1607 30.2909C33.2794 30.9187 33.4043 31.4328 33.5356 31.8334Z" fill="#A86649"/>
<path d="M48.465 33.1081C48.2075 33.0663 47.9124 32.971 47.5798 32.8223C47.2364 32.6584 46.8962 32.434 46.5592 32.1494C46.4433 32.0494 46.3102 31.8925 46.1599 31.6787C46.0247 31.4538 45.9173 31.3011 45.8379 31.2206C45.868 31.3607 45.8734 31.5307 45.8542 31.7305C45.8393 31.904 45.8136 32.0621 45.7772 32.2051C45.7601 32.3105 45.7108 32.5325 45.6294 32.871C45.5373 33.1943 45.4237 33.487 45.2887 33.7492C45.0187 34.4359 44.7292 34.9165 44.4204 35.1911C44.1266 35.4545 43.7082 35.5084 43.1653 35.3526C42.7855 35.3315 42.4572 35.2377 42.1803 35.071C41.9185 34.8932 41.6823 34.5572 41.4718 34.0631C41.1261 33.5064 40.8362 32.9317 40.602 32.3391C40.3571 31.7311 40.1218 30.8609 39.896 29.7285C39.7711 28.8695 39.6893 28.2339 39.6505 27.8217C39.6009 27.3943 39.5772 27.1334 39.5793 27.039C39.7508 26.7963 39.9439 26.6653 40.1584 26.646C40.3623 26.6115 40.5543 26.69 40.7347 26.8816C40.9321 26.9678 41.0996 27.2385 41.2371 27.6937C41.3896 28.1378 41.5187 28.727 41.6241 29.4611C41.7789 30.1356 41.9487 30.799 42.1336 31.4513C42.3334 32.0925 42.5471 32.6075 42.7748 32.9961C43.0024 33.3848 43.2481 33.5397 43.512 33.4608C43.7008 33.4373 43.9174 33.2425 44.1618 32.8763C44.4213 32.499 44.5894 31.9108 44.6663 31.1116C44.7582 30.3013 44.6579 29.2501 44.3655 27.958C44.271 27.5638 44.1732 27.23 44.0722 26.9566C43.9605 26.6679 43.8102 26.3729 43.6212 26.0717C43.4624 25.9106 43.3571 25.7447 43.3056 25.574C43.2583 25.377 43.2871 25.1584 43.3922 24.9184C43.3985 24.7977 43.4328 24.668 43.495 24.5293C43.5464 24.3753 43.614 24.3254 43.6977 24.3795L44.0419 24.0904C44.0912 24.0308 44.1556 24.0413 44.235 24.1218C44.3187 24.176 44.4196 24.2059 44.5376 24.2115C44.7994 24.2269 45.0538 24.4914 45.3007 25.005C45.5477 25.5186 45.7884 26.3153 46.0228 27.395C46.1776 28.2318 46.3153 28.8494 46.4356 29.2477C46.5709 29.635 46.7385 29.9868 46.9382 30.3034C47.1314 30.5782 47.3664 30.799 47.6433 30.9657C47.9202 31.1324 48.241 31.2318 48.6057 31.264C48.846 31.2489 49.022 31.3045 49.1336 31.4308C49.2603 31.5461 49.3805 31.7009 49.4943 31.8952C49.5609 32.0549 49.5513 32.2359 49.4656 32.4385C49.3842 32.6147 49.2533 32.7693 49.0732 32.9024C48.893 33.0355 48.6903 33.104 48.465 33.1081Z" fill="#A86649"/>
<path d="M48.7255 32.854C48.6427 32.854 48.5187 32.8329 48.3536 32.7907C48.2051 32.7402 48.065 32.6855 47.9332 32.6265C47.859 32.6013 47.7971 32.5802 47.7476 32.5634C47.6901 32.5297 47.6406 32.5129 47.5992 32.5128C47.5426 32.395 47.5272 32.2983 47.553 32.2226C47.5954 32.1385 47.6338 32.0459 47.6682 31.945C47.6864 31.8104 47.7705 31.7053 47.9205 31.6296C48.0705 31.554 48.167 31.453 48.2099 31.3269C48.4049 30.9568 48.6042 30.5741 48.8078 30.1788C49.0114 29.7834 49.1447 29.3713 49.2079 28.9422C49.2797 28.488 49.3394 28.0085 49.387 27.5037C49.4345 26.999 49.4778 26.5069 49.5167 26.0273C49.5269 25.8759 49.5342 25.6109 49.5388 25.2323C49.5434 24.8538 49.5437 24.4878 49.5398 24.1345C49.5444 23.7559 49.5267 23.5035 49.4869 23.3773C49.3126 23.4025 49.1508 23.4319 49.0013 23.4655C48.8604 23.4738 48.7235 23.4906 48.5907 23.5158C48.3276 23.3558 48.1797 23.2633 48.1468 23.238C48.1059 23.1959 48.0209 23.0403 47.8916 22.771C47.7947 22.5691 47.8425 22.3882 48.0349 22.2284C48.4617 21.8668 48.8503 21.5768 49.2008 21.3582C49.568 21.1312 49.9107 20.8747 50.2289 20.5888C50.4299 20.4038 50.7012 20.2356 51.0426 20.0843C51.384 19.933 51.7537 19.8406 52.1516 19.8071C52.3339 19.7988 52.4993 19.8199 52.6478 19.8704C52.7962 19.9209 52.9444 19.9925 53.0924 20.0851C53.4545 20.2787 53.688 20.4849 53.793 20.7037C53.9147 20.9141 54.0073 21.1286 54.0709 21.3474C54.1345 21.5661 54.2685 21.7807 54.473 21.9911C54.5745 22.5043 54.6516 22.9671 54.7046 23.3793C54.7495 23.7747 54.7946 24.1491 54.84 24.5025C54.8773 24.839 54.9149 25.1545 54.9527 25.4489C54.9906 25.7434 55.0451 26.0294 55.1162 26.3071C55.1788 26.61 55.2247 26.9213 55.2539 27.241C55.2832 27.5607 55.3414 27.8762 55.4288 28.1875C55.5004 28.423 55.4772 28.6334 55.359 28.8184C55.2574 28.995 55.1352 29.1716 54.9922 29.3483C54.9337 29.3987 54.8089 29.4407 54.618 29.4743C54.4357 29.4826 54.2496 29.4615 54.0597 29.411C53.9209 29.2511 53.8234 29.0912 53.7674 28.9314C53.7114 28.7715 53.672 28.6032 53.6493 28.4265C53.6347 28.2667 53.581 27.9176 53.4881 27.3791C53.3953 26.8407 53.2909 26.2349 53.1748 25.5618C53.0588 24.8888 52.9546 24.262 52.8623 23.6815C52.77 23.101 52.7003 22.6971 52.6534 22.47C52.6075 22.1587 52.5356 21.9441 52.4376 21.8263C52.3563 21.7001 52.2708 21.5865 52.1809 21.4855C51.7663 21.5274 51.5044 21.6072 51.3953 21.7249C51.2948 21.8174 51.1609 21.9268 50.9938 22.0529C50.9427 22.1622 50.9124 22.2716 50.9028 22.381C50.8932 22.4903 50.9003 22.5913 50.924 22.6838C50.9749 23.2643 51.0023 23.7312 51.0063 24.0846C51.027 24.4295 51.0355 24.7492 51.0319 25.0436C51.0203 25.3212 51.004 25.6325 50.9833 25.9774C50.9792 26.3139 50.9819 26.7724 50.9914 27.3529C51.0034 27.7231 50.9701 28.0848 50.8912 28.4381C50.829 28.783 50.7916 29.1363 50.7789 29.4981L50.6736 29.9902C50.6902 29.9818 50.6559 30.0827 50.5705 30.293C50.4851 30.5033 50.3997 30.7136 50.3143 30.9239C50.2456 31.1257 50.2113 31.2267 50.2113 31.2267L49.7271 32.2234C49.676 32.3328 49.5505 32.4379 49.3505 32.5387C49.1505 32.6396 48.9422 32.7447 48.7255 32.854Z" fill="#A86649"/>
<path d="M56.8965 26.5819C56.7724 26.2296 56.6921 25.7952 56.6555 25.2787C56.6367 24.7566 56.6473 24.2351 56.6874 23.7143C56.7274 23.1934 56.7761 22.7676 56.8336 22.4368C56.7877 22.2165 56.7943 22.0091 56.8533 21.8147C56.9302 21.6148 56.9751 21.4052 56.9879 21.1861C56.9935 21.0084 57.0412 20.71 57.1309 20.291C57.2153 19.854 57.3176 19.4115 57.4376 18.9634C57.5576 18.5154 57.665 18.1885 57.7597 17.983C57.7316 17.7572 57.7586 17.5532 57.8409 17.3711C57.9178 17.1711 57.9858 16.9739 58.0448 16.7795C58.2086 16.8066 58.3404 16.8241 58.4401 16.8321C58.5399 16.8401 58.6733 16.8962 58.8406 17.0004C58.9669 17.0979 59.0994 17.1836 59.2382 17.2576C59.3895 17.3081 59.5212 17.4235 59.6331 17.6036C59.6809 17.7647 59.6664 17.9452 59.5895 18.1452C59.5251 18.3217 59.4607 18.4982 59.3963 18.6747C59.2819 18.9451 59.1987 19.1568 59.1468 19.3099C59.1074 19.4395 59.0582 19.6015 58.9991 19.7959C58.9525 19.9669 58.8702 20.2467 58.752 20.6356C58.8517 20.6436 58.963 20.6577 59.0859 20.678C59.2034 20.6804 59.3067 20.6677 59.3958 20.6399C59.5509 20.572 59.7077 20.5426 59.8662 20.5518C60.0246 20.561 60.1858 20.5791 60.3496 20.6062C60.5081 20.6154 60.6639 20.6157 60.8171 20.607C61.0522 20.6118 61.3175 20.6854 61.6129 20.8279C61.9261 20.9647 62.218 21.1278 62.4884 21.3172C62.7588 21.5065 62.9446 21.6734 63.0459 21.8178C63.1259 21.8905 63.2477 22.0383 63.4112 22.261C63.5872 22.4603 63.6688 22.6694 63.656 22.8885C63.6594 22.9656 63.6655 23.0517 63.6743 23.1468C63.683 23.2418 63.7007 23.334 63.7273 23.4235C63.5716 23.8827 63.4455 24.2447 63.3489 24.5095C63.2523 24.7743 63.0452 25.0931 62.7275 25.466C62.2405 25.9895 61.7295 26.4325 61.1946 26.7949C60.6776 27.1518 60.1224 27.4131 59.529 27.5787C59.4399 27.6065 59.3588 27.6612 59.2857 27.7427C59.225 27.8007 59.1395 27.8078 59.0292 27.7641C58.6728 27.8753 58.3763 27.8603 58.1396 27.7191C57.903 27.5778 57.6494 27.4126 57.379 27.2232C57.178 27.0709 57.0172 26.8571 56.8965 26.5819ZM58.4172 26.1953C58.7486 26.131 59.0373 26.0213 59.2833 25.8663C59.5472 25.7058 59.8048 25.5569 60.0561 25.4198C60.3431 25.2716 60.6293 25.0552 60.9147 24.7706C61.1948 24.4681 61.4286 24.1409 61.6162 23.7891C61.8163 23.4138 61.9183 23.0691 61.9224 22.755C61.9333 22.5952 61.8944 22.4313 61.8056 22.2635C61.7168 22.0957 61.5995 21.9955 61.4535 21.9628C61.2381 21.8932 61.0227 21.8235 60.8073 21.7539C60.5919 21.6842 60.3621 21.6973 60.118 21.793C60.0698 21.8276 60.0075 21.8471 59.9309 21.8514C59.8668 21.8323 59.8054 21.8222 59.7466 21.821C59.5934 21.8297 59.4455 21.8563 59.303 21.9007C59.1783 21.9397 59.0499 21.9993 58.918 22.0796C58.7736 22.1833 58.6381 22.2842 58.5114 22.3824C58.3848 22.4806 58.365 22.6432 58.4519 22.8703C58.4625 22.9061 58.4366 22.9826 58.3741 23.0999C58.3491 23.1468 58.322 23.3507 58.2929 23.7118C58.2817 24.0672 58.2758 24.4406 58.2751 24.8318C58.2745 25.2231 58.2714 25.5076 58.2658 25.6853C58.2692 25.7624 58.2842 25.8458 58.3108 25.9352C58.3499 26.0012 58.3853 26.0879 58.4172 26.1953Z" fill="#A86649"/>
<path d="M71.6486 15.9979C71.8904 15.8174 72.1536 15.7378 72.438 15.759C72.7202 15.7616 72.9475 15.8557 73.1197 16.0412C73.3083 16.206 73.3646 16.4435 73.2884 16.7539C73.3123 16.6381 73.2748 16.718 73.1757 16.9936C73.093 17.2483 72.982 17.5819 72.8426 17.9941C72.7218 18.4041 72.6081 18.7944 72.5014 19.165C72.4111 19.5147 72.3507 19.7197 72.3202 19.7799L72.3301 19.8633C72.6265 19.8266 72.8134 19.8975 72.8908 20.076C72.9846 20.2336 73.0354 20.4248 73.0431 20.6496C72.8252 20.7142 72.6754 20.7986 72.5937 20.9028C72.5098 20.9884 72.3948 21.0497 72.2488 21.0866C72.1933 21.0935 72.1317 21.1293 72.0642 21.1941C71.9966 21.2589 71.958 21.3296 71.9482 21.406C71.9362 21.4639 71.9069 21.6933 71.8602 22.0941C71.8298 22.474 71.7853 22.8933 71.7266 23.352C71.6843 23.7899 71.6392 24.1246 71.5914 24.3563C71.5718 24.5092 71.5119 24.6389 71.4117 24.7453C71.3093 24.8332 71.2407 24.8888 71.2058 24.9119C70.8178 24.8095 70.5568 24.7478 70.4227 24.7268C70.305 24.685 70.1851 24.6246 70.0631 24.5457C70.0314 24.4368 70.0161 24.307 70.0171 24.1564C70.016 23.9873 70.0393 23.7869 70.0872 23.5552C70.147 23.2657 70.1905 22.997 70.2176 22.7491C70.2611 22.4804 70.2926 22.1097 70.312 21.637C70.2335 21.6092 70.0761 21.6287 69.8396 21.6956C69.6195 21.7417 69.382 21.7994 69.127 21.8686C68.872 21.9378 68.6541 22.0024 68.4732 22.0625C68.3109 22.1202 68.2379 22.1387 68.2542 22.1178C68.166 22.1664 67.9932 22.216 67.7361 22.2667C67.4953 22.2966 67.2441 22.3183 66.9825 22.3319C66.7374 22.3247 66.557 22.3094 66.4415 22.2861L66.2846 22.3902C66.2879 22.5779 66.2374 22.8663 66.1329 23.2554C66.0263 23.626 65.9915 23.9689 66.0287 24.284C66.0386 24.5273 66.03 24.7729 66.0028 25.0208C65.9757 25.2687 65.9682 25.5235 65.9802 25.7854C66.0098 26.1955 65.9282 26.4596 65.7354 26.5775C65.561 26.6932 65.2663 26.6639 64.851 26.4896C64.7518 26.4455 64.6515 26.3921 64.5502 26.3294C64.4673 26.2645 64.3741 26.1914 64.2705 26.1102L64.4626 23.9139C64.5061 23.6452 64.5425 23.3961 64.5718 23.1668C64.5989 22.9189 64.6364 22.6791 64.6843 22.4475C64.7844 22.0213 64.8741 21.587 64.9535 21.1445C65.0514 20.6998 65.1711 20.2805 65.3126 19.8868C65.3126 19.8868 65.3295 19.7907 65.3632 19.5984C65.4132 19.3853 65.4704 19.1525 65.5346 18.9C65.5966 18.629 65.6466 18.4159 65.6847 18.2607C65.7228 18.1055 65.7288 18.0766 65.7026 18.1738C65.7451 18.0557 65.8033 17.8322 65.8773 17.5033C65.9491 17.1558 66.0138 16.828 66.0714 16.5199C66.1454 16.191 66.1813 16.0173 66.1791 15.9987C66.203 15.8829 66.2499 15.8019 66.3196 15.7556C66.3871 15.6908 66.4765 15.6515 66.5876 15.6378C66.9003 15.5802 67.1684 15.6222 67.3919 15.7638C67.6132 15.8868 67.7462 16.0584 67.7909 16.2786C67.7855 16.3921 67.7883 16.4952 67.7992 16.5879C67.8102 16.6806 67.8004 16.757 67.7699 16.8172L66.7416 20.5279L66.7678 20.7503C66.9662 20.8386 67.237 20.8238 67.5802 20.7061C67.9397 20.5674 68.2122 20.4867 68.3974 20.4637C68.4878 20.4337 68.6987 20.3887 69.03 20.3289C69.3797 20.2667 69.7121 20.2161 70.027 20.177C70.3605 20.1357 70.5375 20.1232 70.5583 20.1394C70.6964 19.558 70.8204 19.016 70.9303 18.5133C71.038 17.9921 71.2094 17.4536 71.4446 16.8978C71.4587 16.8584 71.4816 16.7333 71.5131 16.5225C71.5631 16.3094 71.6083 16.1345 71.6486 15.9979Z" fill="#A86649"/>
<path d="M76.0129 25.7991C75.7706 25.785 75.5775 25.7271 75.4335 25.6253C75.3082 25.5245 75.1477 25.3843 74.952 25.2047C74.6185 24.8114 74.3864 24.4427 74.2558 24.0986C74.1263 23.7358 74.0982 23.3976 74.1716 23.084C74.2357 22.9382 74.262 22.7994 74.2506 22.6679C74.2588 22.5188 74.2629 22.4442 74.2629 22.4442C74.1749 22.3456 74.15 22.2881 74.1883 22.2716C74.2276 22.2365 74.268 22.1828 74.3094 22.1104C74.4212 22.1168 74.4641 22.0165 74.4382 21.8093C74.4091 21.658 74.5016 21.3362 74.7157 20.8438C74.9298 20.3513 75.189 19.8895 75.4932 19.4584C75.6153 19.2785 75.7964 19.0459 76.0364 18.7607C76.2775 18.4568 76.5367 18.1633 76.8141 17.8802C77.1111 17.5795 77.3765 17.3425 77.6104 17.1691C78.0979 16.8047 78.5238 16.5395 78.8882 16.3737C79.2525 16.2078 79.6423 16.0902 80.0574 16.0207C80.4725 15.9513 80.7546 15.9209 80.9037 15.9295C81.0714 15.9392 81.2868 16.1013 81.5499 16.4157C81.9682 16.6269 82.2634 16.8684 82.4353 17.1402C82.6259 17.413 82.7353 17.8026 82.7635 18.3091C82.7885 18.8715 82.7065 19.5118 82.5173 20.2301C82.3478 20.9308 81.8611 21.7907 81.0571 22.8099C80.5542 23.4539 80.0978 23.9323 79.688 24.2451C79.2792 24.5393 78.7958 24.8291 78.2379 25.1147C77.8322 25.3529 77.4673 25.5281 77.1433 25.6402C76.8203 25.7337 76.4435 25.7866 76.0129 25.7991ZM78.8598 22.9911C79.3348 22.5138 79.7151 22.059 80.0006 21.6268C80.3048 21.1957 80.5971 20.6423 80.8773 19.9667C80.9632 19.766 81.0237 19.5171 81.0587 19.22C81.0948 18.9042 81.1015 18.6148 81.0786 18.3517C81.0754 18.071 81.0189 17.9088 80.9091 17.8651C80.6927 17.7216 80.4245 17.6687 80.1046 17.7063C79.7858 17.7252 79.4313 17.8823 79.0411 18.1775C78.4367 18.6286 77.9001 19.2052 77.4314 19.9073C76.9637 20.5907 76.4997 21.3772 76.0394 22.2667C75.7229 22.9215 75.6278 23.4582 75.7543 23.8769C75.9004 24.278 76.2375 24.4378 76.7654 24.3562C77.3131 24.2571 78.0112 23.802 78.8598 22.9911Z" fill="#A86649"/>
<path d="M87.6064 27.146C87.1533 27.3878 86.6659 27.4784 86.1444 27.4176C85.641 27.3609 85.1743 27.1786 84.7443 26.8707C84.3182 26.5444 83.9976 26.1273 83.7826 25.6192C83.5596 25.1476 83.4577 24.6461 83.4769 24.1145C83.5 23.5647 83.6384 22.8784 83.8923 22.0555C84.1003 21.3563 84.4814 20.6962 85.0353 20.0753C85.5932 19.4362 86.2154 18.8977 86.9017 18.4599C87.6062 18.0263 88.2643 17.7639 88.8759 17.6728C89.1883 17.5523 89.4336 17.5217 89.6117 17.5812C89.8119 17.6266 90.1084 17.7129 90.501 17.8402C90.908 17.9898 91.1997 18.142 91.3764 18.2969C91.5712 18.4559 91.7127 18.641 91.8008 18.8524C92.0148 19.188 92.1379 19.5029 92.1699 19.7973C92.2058 20.0734 92.1962 20.3391 92.1411 20.5946C91.9818 20.9795 91.6024 21.4103 91.0032 21.887C90.4261 22.3495 89.725 22.6787 88.8999 22.8745C88.4718 22.9115 88.0231 22.8672 87.5537 22.7417C87.0843 22.6162 86.7185 22.4089 86.4562 22.1198C86.1418 21.8954 85.9083 21.8712 85.7558 22.0472C85.6072 22.2049 85.4087 22.6384 85.1603 23.3477C84.938 24.0246 84.8824 24.5479 84.9936 24.9176C85.1088 25.269 85.3152 25.5072 85.6129 25.6321C85.9612 25.7876 86.2316 25.9062 86.424 25.9881C86.6385 26.0559 86.9202 26.0336 87.269 25.9212C87.5997 25.8048 87.8034 25.7457 87.8801 25.7439C87.9608 25.7239 88.0233 25.6998 88.0676 25.6716C88.134 25.6292 88.2779 25.5374 88.4993 25.3962C88.6543 25.2973 88.7741 25.2288 88.8587 25.1905C88.9473 25.1341 89.0371 25.1161 89.1281 25.1368C89.2191 25.1574 89.2912 25.2216 89.3443 25.3293C89.4014 25.4188 89.4624 25.49 89.5274 25.543C89.7094 25.5843 89.7222 25.702 89.5658 25.8962C89.4276 26.0946 89.1793 26.3158 88.8212 26.56C88.4669 26.786 88.062 26.9813 87.6064 27.146ZM88.8304 21.3372C89.0503 21.2914 89.2872 21.2111 89.5411 21.0963C89.7989 20.9634 90.0223 20.813 90.2112 20.6453C90.4223 20.4635 90.5435 20.2996 90.575 20.1536C90.6301 19.8981 90.557 19.6615 90.3558 19.4436C90.1584 19.2075 89.8093 19.0997 89.3085 19.1202C89.0964 19.1295 88.8393 19.2148 88.5372 19.376C88.2391 19.519 87.9441 19.6914 87.6524 19.8932C87.3788 20.0992 87.1476 20.286 86.9587 20.4537C86.788 20.6256 86.7169 20.7339 86.7454 20.7786C86.7803 20.8822 86.9193 20.9903 87.1624 21.1028C87.4094 21.197 87.6896 21.2701 88.0031 21.322C88.3347 21.378 88.6105 21.3831 88.8304 21.3372Z" fill="#A86649"/>
<path d="M90.7087 36.1156C90.6435 36.0793 90.5619 36.0339 90.4641 35.9795C90.3575 35.9415 90.3027 35.8256 90.2998 35.6317C90.2782 35.513 90.3029 35.3665 90.374 35.1925C90.4614 35.0275 90.6594 34.7533 90.9681 34.3698C91.1982 34.1347 91.4119 33.8906 91.6094 33.6374C91.7981 33.4007 91.9274 33.2164 91.9973 33.0844C92.0322 33.0184 92.1184 32.8955 92.2559 32.7157C92.4009 32.5615 92.4953 32.4431 92.5389 32.3607C92.6904 32.2741 92.8517 32.1289 93.023 31.9252C93.1942 31.7215 93.3279 31.5289 93.424 31.3475C93.5288 31.1495 93.7228 31.0225 94.0059 30.9665C94.0757 30.8345 94.1876 30.6832 94.3413 30.5124C94.5114 30.3508 94.6139 30.237 94.6489 30.171C94.8201 29.9673 95.1402 29.6221 95.609 29.1355C96.103 28.6415 96.6688 28.0914 97.3066 27.4853C97.9607 26.8882 98.5979 26.303 99.2183 25.7299C99.8386 25.1567 100.378 24.6771 100.835 24.2911C101.276 23.9382 101.616 23.6149 101.856 23.3213C102.121 23.0202 102.297 22.7872 102.384 22.6223C102.419 22.5563 102.462 22.5159 102.512 22.5011C102.571 22.4697 102.692 22.4198 102.876 22.3514C103.127 22.2772 103.292 22.3049 103.371 22.4344C103.466 22.573 103.569 22.7582 103.679 22.99C103.695 23.2771 103.689 23.5085 103.659 23.6842C103.646 23.869 103.511 24.1247 103.253 24.4513C103.122 24.6987 102.968 24.8905 102.79 25.0265C102.612 25.1626 102.465 25.262 102.347 25.3246C102.238 25.3708 102.204 25.3947 102.246 25.3964C103.081 25.4551 103.755 25.617 104.269 25.8819C104.809 26.1393 105.193 26.4706 105.422 26.8757C105.676 27.2733 105.797 27.7035 105.784 28.1663C105.771 28.6291 105.638 29.0997 105.385 29.578C105.28 29.776 105.112 29.9925 104.882 30.2275C104.661 30.4461 104.424 30.6345 104.171 30.7929C103.943 30.9438 103.754 31.0415 103.604 31.086C103.539 31.0497 103.443 31.0711 103.317 31.1503C103.199 31.213 103.073 31.2921 102.937 31.3878C102.72 31.4801 102.407 31.5518 102 31.6029C101.618 31.6465 101.253 31.6572 100.906 31.6348C100.568 31.596 100.346 31.5155 100.242 31.3934C100.242 31.3934 100.213 31.388 100.155 31.3773C100.123 31.3591 100.085 31.3913 100.041 31.4738C100.023 31.5068 99.8537 31.5084 99.5316 31.4786C99.2182 31.4324 98.864 31.3634 98.469 31.2718C98.0828 31.1636 97.7592 31.037 97.4983 30.8917C97.1557 30.7011 96.946 30.4989 96.8691 30.2853C96.819 30.3001 96.752 30.3269 96.6681 30.3657C96.6006 30.4135 96.5537 30.4622 96.5275 30.5116C96.4751 30.6106 96.3338 30.7776 96.1038 31.0127C95.8987 31.2403 95.6818 31.4506 95.4529 31.6436C95.224 31.8366 95.0687 31.9104 94.9872 31.865C94.9872 31.865 94.9577 31.8807 94.8989 31.912C94.8401 31.9433 94.8215 32.0184 94.843 32.1372C94.843 32.1372 94.7868 32.2234 94.6744 32.3957C94.5696 32.5937 94.4414 32.736 94.29 32.8226C94.2201 32.9545 94.0908 33.1389 93.9021 33.3756C93.7134 33.6123 93.5515 33.7785 93.4163 33.8741C93.3115 34.0721 93.1784 34.2436 93.0171 34.3888C92.8633 34.5595 92.7538 34.6267 92.6885 34.5904C92.6146 34.5706 92.5214 34.6469 92.409 34.8192C92.2878 35.0081 92.2054 35.1438 92.1617 35.2263C91.927 35.6296 91.6751 35.9059 91.406 36.0551C91.1369 36.2044 90.9045 36.2246 90.7087 36.1156ZM98.046 29.4986C98.1765 29.5712 98.4762 29.6632 98.9451 29.7747C99.414 29.8861 99.9042 29.9774 100.416 30.0484C100.952 30.1121 101.374 30.1122 101.683 30.0487C102.308 29.9053 102.861 29.6579 103.343 29.3066C103.849 28.9479 104.082 28.4687 104.041 27.869C104.033 27.5654 103.844 27.3431 103.475 27.2019C103.115 27.0443 102.67 26.9675 102.14 26.9715C101.61 26.9755 101.074 27.0509 100.532 27.1976C100.222 27.3031 99.9031 27.4672 99.574 27.6899C99.2449 27.9125 98.9403 28.1488 98.6601 28.3987C98.3963 28.6577 98.1994 28.8898 98.0695 29.0952C97.9397 29.3006 97.9318 29.435 98.046 29.4986Z" fill="#A86649"/>
<path d="M106.814 38.3888C106.304 38.4086 105.829 38.2764 105.388 37.9921C104.962 37.7196 104.623 37.3494 104.371 36.8815C104.13 36.3988 104.023 35.8801 104.049 35.3256C104.053 34.8006 104.178 34.3016 104.424 33.8287C104.682 33.341 105.102 32.7804 105.683 32.1468C106.171 31.6051 106.796 31.1749 107.559 30.8562C108.334 30.5226 109.123 30.3085 109.926 30.2138C110.743 30.1308 111.445 30.1825 112.032 30.3688C112.363 30.3969 112.596 30.4771 112.73 30.6092C112.889 30.7383 113.117 30.9468 113.414 31.2346C113.714 31.549 113.909 31.8151 114.001 32.0329C114.106 32.2626 114.153 32.4924 114.141 32.7225C114.188 33.1205 114.162 33.4597 114.064 33.7403C113.977 34.0061 113.854 34.2426 113.695 34.4497C113.386 34.7282 112.861 34.9516 112.12 35.1198C111.404 35.2849 110.635 35.2748 109.812 35.0895C109.413 34.9348 109.03 34.6975 108.664 34.3775C108.298 34.0575 108.06 33.709 107.95 33.332C107.765 32.9906 107.567 32.8661 107.355 32.9584C107.154 33.0359 106.789 33.3412 106.261 33.8742C105.771 34.3894 105.495 34.8389 105.436 35.2225C105.387 35.5914 105.469 35.8978 105.682 36.1417C105.927 36.4356 106.118 36.6619 106.254 36.8206C106.417 36.9763 106.679 37.0799 107.04 37.1315C107.386 37.1714 107.593 37.2074 107.663 37.2395C107.744 37.2569 107.81 37.2625 107.862 37.2564C107.939 37.2472 108.108 37.2274 108.367 37.1968C108.548 37.1754 108.685 37.166 108.777 37.1686C108.881 37.1563 108.969 37.1796 109.041 37.2383C109.114 37.297 109.151 37.3868 109.152 37.5077C109.164 37.6138 109.188 37.7051 109.224 37.7817C109.369 37.899 109.329 38.0113 109.106 38.1184C108.897 38.2372 108.579 38.3285 108.153 38.3922C107.739 38.4411 107.292 38.4399 106.814 38.3888ZM110.412 33.6669C110.629 33.722 110.875 33.7535 111.152 33.7612C111.44 33.7541 111.705 33.7161 111.946 33.6473C112.213 33.5754 112.392 33.4803 112.483 33.362C112.643 33.1548 112.679 32.9084 112.593 32.6227C112.518 32.3222 112.252 32.0711 111.795 31.8695C111.601 31.7848 111.335 31.749 110.995 31.7622C110.666 31.7606 110.328 31.7871 109.98 31.8416C109.646 31.9078 109.359 31.9754 109.118 32.0442C108.891 32.1248 108.781 32.1916 108.787 32.2446C108.773 32.3538 108.851 32.5128 109.02 32.7215C109.201 32.9154 109.42 33.1047 109.678 33.2895C109.951 33.4859 110.195 33.6118 110.412 33.6669Z" fill="#A86649"/>
<path d="M108.743 40.6442C108.765 40.3107 108.769 40.0157 108.757 39.7592C108.77 39.5054 108.823 39.2557 108.914 39.0101C109.031 38.7672 109.237 38.4866 109.533 38.1683C109.78 37.9389 110.035 37.7508 110.3 37.6039C110.564 37.4569 110.839 37.3379 111.124 37.2469C111.544 37.1162 111.963 36.9989 112.38 36.8948C112.797 36.7908 113.222 36.6807 113.653 36.5647C114.249 36.3853 114.799 36.2683 115.302 36.2135C115.821 36.1469 116.161 36.2161 116.323 36.4211C116.505 36.682 116.558 36.9293 116.481 37.163C116.43 37.3994 116.358 37.7142 116.264 38.1073C116.098 38.1973 115.914 38.2654 115.712 38.3114C115.525 38.3456 115.333 38.3591 115.138 38.352C114.8 38.3167 114.465 38.3286 114.131 38.3877C113.797 38.4468 113.479 38.5411 113.177 38.6706C112.881 38.7471 112.584 38.8235 112.288 38.8999C112.006 38.9644 111.722 39.0422 111.438 39.1333C110.755 39.2633 110.393 39.4067 110.35 39.5634C110.308 39.7201 110.477 39.8587 110.857 39.9791C111.25 40.1142 111.732 40.1983 112.306 40.2315C112.787 40.2684 113.157 40.3005 113.417 40.3276C113.676 40.3548 113.944 40.3627 114.22 40.3513C114.298 40.3595 114.508 40.3546 114.851 40.3368C115.22 40.3216 115.596 40.3005 115.979 40.2735C116.388 40.2491 116.677 40.2391 116.847 40.2435C117.083 40.2413 117.308 40.2246 117.521 40.1931C117.748 40.1498 117.964 40.0918 118.168 40.0192C118.335 39.9292 118.475 39.9102 118.587 39.9623C118.726 40.0171 118.838 40.1296 118.926 40.2999C118.955 40.5179 118.97 40.7478 118.971 40.9897C118.987 41.2196 118.913 41.4872 118.75 41.7925C118.664 41.985 118.418 42.1406 118.012 42.2593C117.618 42.3927 117.207 42.5041 116.778 42.5935C116.415 42.6764 116.069 42.7946 115.738 42.948C115.419 43.1161 115.087 43.2828 114.742 43.4481C114.506 43.5712 114.311 43.806 114.157 44.1525C114.503 44.3499 114.806 44.4622 115.065 44.4894C115.351 44.5192 115.632 44.5285 115.908 44.5171C116.196 44.5204 116.505 44.5796 116.833 44.6946C117.064 44.6246 117.287 44.6212 117.503 44.6841C117.745 44.7497 117.983 44.7343 118.216 44.6378L119.884 44.6714C120.106 44.6812 120.345 44.6525 120.601 44.5853C120.883 44.5208 121.129 44.4861 121.339 44.4812C121.575 44.4791 121.724 44.5618 121.785 44.7294C121.986 45.3145 121.922 45.8652 121.593 46.3814C121.406 46.5365 121.033 46.7124 120.475 46.9092C119.943 47.1087 119.44 47.3448 118.966 47.6175C118.687 47.7764 118.413 47.9558 118.142 48.1559C117.898 48.3587 117.676 48.604 117.476 48.892C117.482 49.0807 117.576 49.245 117.758 49.3849C117.966 49.5276 118.128 49.6721 118.244 49.8186C118.193 50.055 118.054 50.2553 117.827 50.4196C117.6 50.5839 117.425 50.6932 117.301 50.7474C117.125 50.6752 116.956 50.5971 116.795 50.513C116.647 50.417 116.517 50.2825 116.404 50.1095C116.274 49.8541 116.202 49.6586 116.19 49.523C116.178 49.3874 116.186 49.2473 116.215 49.1025C116.269 48.9604 116.295 48.7684 116.295 48.5266C116.31 48.1253 116.441 47.7495 116.688 47.3992C116.946 47.0636 117.228 46.7439 117.536 46.4403C117.504 46.3698 117.371 46.3223 117.137 46.2979C116.904 46.2734 116.61 46.2628 116.256 46.266C115.916 46.2573 115.537 46.2445 115.119 46.2277C114.728 46.2135 114.326 46.1714 113.913 46.1014C113.642 46.0596 113.389 45.9793 113.152 45.8605C112.93 45.7298 112.737 45.5015 112.575 45.1756C112.536 44.9163 112.551 44.6493 112.619 44.3743C112.713 44.1021 112.748 43.8304 112.724 43.5593C112.836 43.3695 112.933 43.1917 113.016 43.0257C113.125 42.8625 113.24 42.7066 113.36 42.558C113.466 42.4214 113.578 42.2921 113.696 42.1701C113.828 42.0362 113.98 41.9581 114.153 41.9359C114.112 41.8242 113.979 41.7767 113.755 41.7935C113.545 41.7983 113.294 41.8124 113.003 41.8357C112.727 41.847 112.441 41.8172 112.147 41.7461C111.775 41.6669 111.447 41.6123 111.162 41.5825C110.876 41.5526 110.591 41.5227 110.306 41.4929C110.02 41.463 109.685 41.4144 109.298 41.3471L108.743 40.6442Z" fill="#A86649"/>
<path d="M118.724 56.3126C118.255 56.1092 117.883 55.7842 117.608 55.3374C117.341 54.9076 117.195 54.4276 117.17 53.8975C117.161 53.3591 117.289 52.8463 117.553 52.3592C117.784 51.8889 118.113 51.4945 118.54 51.1762C118.984 50.8495 119.605 50.5276 120.405 50.2104C121.08 49.9349 121.832 49.8195 122.659 49.8642C123.503 49.9005 124.309 50.0502 125.075 50.3134C125.85 50.5935 126.461 50.9445 126.911 51.3666C127.198 51.5357 127.374 51.7087 127.437 51.8856C127.526 52.071 127.641 52.3574 127.785 52.7448C127.919 53.1574 127.981 53.4815 127.969 53.717C127.965 53.9694 127.908 54.1963 127.797 54.3979C127.668 54.776 127.497 55.0699 127.287 55.2796C127.094 55.4809 126.88 55.64 126.647 55.7571C126.247 55.8736 125.676 55.8466 124.933 55.676C124.215 55.5139 123.524 55.171 122.861 54.6473C122.568 54.3351 122.325 53.9558 122.133 53.5093C121.941 53.0629 121.876 52.6463 121.94 52.2595C121.921 51.8724 121.796 51.6744 121.564 51.6652C121.349 51.6477 120.887 51.764 120.18 52.0142C119.513 52.2645 119.07 52.5491 118.85 52.8681C118.647 53.1787 118.588 53.4898 118.675 53.8013C118.768 54.1717 118.843 54.458 118.898 54.6601C118.977 54.8706 119.169 55.0774 119.472 55.2802C119.768 55.4662 119.94 55.5887 119.989 55.6478C120.054 55.6985 120.112 55.7323 120.161 55.7493C120.235 55.7747 120.396 55.8299 120.643 55.9148C120.816 55.9743 120.944 56.0251 121.026 56.0675C121.125 56.1014 121.195 56.1605 121.235 56.2448C121.275 56.329 121.269 56.4258 121.218 56.535C121.183 56.6358 121.165 56.7283 121.164 56.8124C121.245 56.9809 121.16 57.0648 120.912 57.064C120.672 57.0801 120.345 57.0243 119.933 56.8969C119.537 56.761 119.134 56.5663 118.724 56.3126ZM124.019 53.6289C124.191 53.7724 124.4 53.9077 124.647 54.0346C124.91 54.1532 125.166 54.234 125.414 54.2768C125.686 54.3281 125.889 54.3204 126.023 54.2535C126.257 54.1364 126.396 53.9308 126.442 53.6365C126.505 53.3338 126.373 52.9927 126.047 52.6131C125.909 52.4528 125.683 52.3049 125.371 52.1693C125.075 52.0254 124.757 51.9024 124.419 51.8004C124.089 51.7152 123.8 51.6512 123.553 51.6084C123.313 51.5824 123.184 51.5946 123.167 51.645C123.108 51.7374 123.109 51.914 123.171 52.175C123.25 52.4276 123.367 52.693 123.52 52.9711C123.681 53.2661 123.848 53.4853 124.019 53.6289Z" fill="#A86649"/>
<path d="M130.222 64.225C130.433 64.4372 130.548 64.6861 130.567 64.9718C130.603 65.2524 130.541 65.4925 130.382 65.6923C130.246 65.905 130.019 65.9976 129.703 65.97C129.82 65.9758 129.736 65.9509 129.451 65.8952C129.188 65.8526 128.844 65.794 128.419 65.7195C127.998 65.663 127.598 65.6105 127.218 65.562C126.861 65.5265 126.65 65.4983 126.587 65.4773L126.506 65.5C126.583 65.7886 126.539 65.9851 126.373 66.0897C126.231 66.2072 126.049 66.2871 125.829 66.3296C125.735 66.1233 125.631 65.9876 125.517 65.9226C125.421 65.8526 125.345 65.748 125.289 65.6087C125.274 65.5546 125.23 65.4991 125.157 65.4421C125.084 65.385 125.009 65.3576 124.932 65.3597C124.874 65.3568 124.644 65.3632 124.242 65.3789C123.863 65.4075 123.444 65.4283 122.984 65.441C122.546 65.4668 122.21 65.4739 121.975 65.4622C121.822 65.4665 121.686 65.4271 121.567 65.3441C121.466 65.256 121.402 65.1965 121.374 65.1655C121.422 64.7644 121.447 64.4957 121.449 64.3594C121.474 64.2361 121.517 64.1077 121.578 63.9743C121.681 63.926 121.807 63.8907 121.955 63.8684C122.122 63.8411 122.323 63.8333 122.558 63.8449C122.851 63.8595 123.122 63.861 123.37 63.8496C123.641 63.8512 124.011 63.825 124.479 63.7712C124.496 63.6889 124.455 63.5356 124.357 63.3113C124.281 63.0999 124.191 62.873 124.088 62.6306C123.985 62.3881 123.891 62.1818 123.807 62.0115C123.728 61.8593 123.699 61.7897 123.722 61.8027C123.662 61.7226 123.59 61.5588 123.504 61.3113C123.442 61.0769 123.386 60.8309 123.336 60.5733C123.31 60.3288 123.3 60.1474 123.307 60.0291L123.183 59.8895C122.998 59.9218 122.707 59.9163 122.309 59.8728C121.929 59.8243 121.586 59.8429 121.281 59.9286C121.042 59.9761 120.799 60.0056 120.551 60.017C120.303 60.0284 120.05 60.0604 119.794 60.1129C119.394 60.2058 119.122 60.1656 118.979 59.9925C118.841 59.8373 118.83 59.5401 118.944 59.1009C118.974 58.9956 119.013 58.8878 119.061 58.7774C119.113 58.6851 119.173 58.5813 119.238 58.4659L121.43 58.3165C121.701 58.3181 121.951 58.3157 122.181 58.3093C122.429 58.2979 122.671 58.298 122.906 58.3096C123.34 58.343 123.78 58.3649 124.227 58.3752C124.679 58.4035 125.109 58.4575 125.517 58.537C125.517 58.537 125.614 58.5388 125.808 58.5425C126.025 58.5592 126.262 58.5799 126.52 58.6045C126.796 58.6241 127.013 58.6408 127.171 58.6546C127.329 58.6684 127.358 58.6698 127.259 58.659C127.381 58.6828 127.61 58.706 127.944 58.7285C128.296 58.746 128.628 58.7595 128.94 58.769C129.274 58.7916 129.451 58.8003 129.469 58.7953C129.586 58.8011 129.672 58.835 129.728 58.8971C129.801 58.9541 129.852 59.0367 129.881 59.1449C129.98 59.4465 129.976 59.7192 129.867 59.9629C129.776 60.2016 129.625 60.3602 129.415 60.4388C129.302 60.451 129.201 60.4697 129.111 60.4949C129.021 60.5201 128.944 60.5222 128.881 60.5013L125.081 60.0548L124.866 60.1153C124.806 60.3259 124.858 60.5925 125.021 60.915C125.207 61.2505 125.324 61.5084 125.373 61.6887C125.415 61.7739 125.488 61.9762 125.593 62.2958C125.702 62.6335 125.798 62.9556 125.879 63.2622C125.966 63.5868 126.003 63.7607 125.99 63.7838C126.582 63.8309 127.133 63.8701 127.644 63.9014C128.172 63.9276 128.727 64.0144 129.307 64.1618C129.348 64.1698 129.474 64.1731 129.686 64.1718C129.903 64.1884 130.082 64.2062 130.222 64.225Z" fill="#A86649"/>
<path d="M122.062 74.8795C122.235 74.6796 122.473 74.475 122.777 74.2657C123.099 74.055 123.47 73.8781 123.891 73.7351C124.037 73.687 124.241 73.6534 124.501 73.6343C124.763 73.6339 124.949 73.6203 125.06 73.5935C124.926 73.5472 124.78 73.4643 124.622 73.3448C124.483 73.2426 124.364 73.139 124.263 73.0341C124.183 72.9651 124.023 72.8084 123.781 72.564C123.558 72.3182 123.373 72.0698 123.224 71.8186C122.791 71.2327 122.541 70.7362 122.475 70.3293C122.411 69.9409 122.59 69.5535 123.012 69.1671C123.233 68.8514 123.488 68.6175 123.777 68.4654C124.067 68.3319 124.477 68.302 125.006 68.3756C125.66 68.3652 126.299 68.4121 126.924 68.5162C127.567 68.6189 128.427 68.8649 129.501 69.2543C130.292 69.5895 130.871 69.8467 131.239 70.0257C131.626 70.2033 131.858 70.3173 131.937 70.3677C132.049 70.6403 132.056 70.8737 131.957 71.0681C131.877 71.2611 131.708 71.3858 131.45 71.4421C131.272 71.5674 130.954 71.5719 130.497 71.4556C130.041 71.3579 129.475 71.1652 128.8 70.8777C128.149 70.6632 127.499 70.4674 126.851 70.2902C126.204 70.1316 125.655 70.05 125.206 70.0455C124.757 70.0409 124.494 70.1723 124.42 70.4398C124.338 70.6142 124.386 70.9008 124.564 71.2996C124.742 71.717 125.148 72.1647 125.78 72.6425C126.413 73.139 127.352 73.5945 128.597 74.0088C128.98 74.1306 129.313 74.2185 129.598 74.2726C129.901 74.3253 130.23 74.348 130.585 74.3408C130.806 74.2872 131.002 74.2823 131.173 74.3259C131.365 74.3868 131.533 74.5242 131.679 74.7381C131.777 74.8058 131.868 74.9021 131.952 75.027C132.054 75.1505 132.06 75.2343 131.969 75.2784L132.028 75.7233C132.052 75.7964 132.009 75.8463 131.898 75.8731C131.808 75.9172 131.729 75.9885 131.661 76.087C131.507 76.3041 131.148 76.3865 130.583 76.3342C130.018 76.2819 129.218 76.0784 128.183 75.7235C127.395 75.4255 126.801 75.2256 126.401 75.1238C126.003 75.0407 125.616 75.0034 125.243 75.012C124.908 75.0365 124.596 75.1248 124.307 75.2769C124.018 75.429 123.762 75.6536 123.54 75.9506C123.424 76.1649 123.282 76.2876 123.116 76.3184C122.951 76.3679 122.756 76.3915 122.532 76.3892C122.362 76.3642 122.214 76.2627 122.09 76.0846C121.985 75.9238 121.925 75.7317 121.909 75.5083C121.894 75.2848 121.944 75.0752 122.062 74.8795Z" fill="#A86649"/>
<path d="M122.153 82.6068C121.862 82.179 121.716 81.7022 121.717 81.1762C121.716 80.6688 121.843 80.1855 122.099 79.7262C122.374 79.269 122.751 78.908 123.231 78.6432C123.673 78.3742 124.159 78.2229 124.688 78.1892C125.236 78.1576 125.932 78.2276 126.777 78.3989C127.495 78.537 128.193 78.8513 128.872 79.3419C129.57 79.8347 130.175 80.4014 130.687 81.0422C131.198 81.7015 131.533 82.3315 131.694 82.9321C131.849 83.2316 131.907 83.4731 131.869 83.6566C131.846 83.8607 131.795 84.1648 131.713 84.5689C131.612 84.9894 131.494 85.2953 131.36 85.4868C131.225 85.6968 131.058 85.8562 130.858 85.965C130.55 86.2117 130.251 86.3656 129.963 86.4267C129.693 86.49 129.429 86.5068 129.169 86.4772C128.769 86.3565 128.298 86.0212 127.757 85.4711C127.233 84.9417 126.826 84.2754 126.538 83.4723C126.452 83.0492 126.445 82.5975 126.515 82.1171C126.586 81.6367 126.75 81.2514 127.007 80.9613C127.193 80.6256 127.191 80.3904 126.999 80.2559C126.825 80.1234 126.373 79.9685 125.641 79.7913C124.944 79.6368 124.419 79.6333 124.065 79.7809C123.729 79.9306 123.517 80.16 123.427 80.4692C123.313 80.8319 123.226 81.1132 123.167 81.3131C123.124 81.5337 123.178 81.8123 123.329 82.1489C123.483 82.4669 123.565 82.6641 123.575 82.7405C123.604 82.8189 123.635 82.8788 123.668 82.9202C123.718 82.9822 123.825 83.1165 123.991 83.3232C124.107 83.4679 124.188 83.5805 124.236 83.6611C124.302 83.7438 124.33 83.8315 124.32 83.9243C124.31 84.0171 124.254 84.0953 124.154 84.159C124.071 84.2248 124.008 84.2927 123.963 84.3627C123.943 84.5483 123.827 84.5727 123.617 84.436C123.404 84.3179 123.156 84.0924 122.873 83.7596C122.609 83.4289 122.369 83.0446 122.153 82.6068ZM128.054 83.2504C128.125 83.4651 128.232 83.6933 128.374 83.935C128.536 84.1789 128.71 84.3866 128.898 84.5583C129.103 84.7507 129.279 84.8553 129.427 84.8722C129.687 84.9018 129.913 84.8054 130.107 84.5832C130.318 84.363 130.385 84.0043 130.308 83.507C130.274 83.2965 130.16 83.0487 129.966 82.7636C129.79 82.4805 129.585 82.2036 129.352 81.9328C129.116 81.6805 128.904 81.4685 128.716 81.2969C128.527 81.1437 128.411 81.0836 128.37 81.1165C128.271 81.1616 128.18 81.3109 128.096 81.5644C128.031 81.82 127.99 82.1066 127.975 82.4242C127.957 82.7603 127.984 83.0357 128.054 83.2504Z" fill="#A86649"/>
<path d="M117.372 92.2923C117.376 92.2331 117.452 92.1236 117.599 91.9637C117.763 91.8112 117.951 91.6489 118.164 91.4769C118.386 91.3295 118.583 91.2215 118.752 91.153C118.981 91.0895 119.205 91.0346 119.427 90.9884C119.658 90.9668 119.893 91.0082 120.133 91.1125C120.439 91.1035 120.733 91.15 121.014 91.2519C121.305 91.3785 121.591 91.4928 121.872 91.5948C122.307 91.7637 122.705 92.0485 123.064 92.4492C123.44 92.8572 123.715 93.1701 123.887 93.3876C124.091 93.5781 124.328 93.8847 124.597 94.3072C124.877 94.7545 125.122 95.2584 125.335 95.8189C125.547 96.3795 125.667 96.92 125.693 97.4405C125.716 97.7761 125.713 98.1004 125.684 98.4136C125.666 98.7515 125.509 99.0803 125.215 99.4002C125.085 99.5675 124.96 99.6757 124.838 99.7247C124.717 99.7737 124.592 99.8313 124.464 99.8975C124.509 100.08 124.711 100.3 125.069 100.558C125.437 100.84 125.874 101.102 126.38 101.342C126.897 101.608 127.412 101.802 127.927 101.924C128.452 102.071 128.907 102.096 129.291 101.998C130.027 101.83 130.584 101.533 130.962 101.107C131.341 100.682 131.525 100.09 131.515 99.3331C131.687 99.1634 131.928 99.0444 132.239 98.9762C132.543 98.9253 132.8 98.9865 133.011 99.1597C133.074 99.3498 133.122 99.5744 133.156 99.8335C133.191 100.093 133.182 100.333 133.13 100.555C133.082 100.819 133.016 101.075 132.933 101.324C132.843 101.59 132.664 101.828 132.396 102.037C131.733 102.807 131.044 103.301 130.328 103.518C129.621 103.76 128.864 103.807 128.057 103.66C127.25 103.512 126.359 103.246 125.387 102.864C125.099 102.779 124.847 102.68 124.631 102.566C124.426 102.476 124.086 102.298 123.611 102.03C123.46 101.761 123.223 101.576 122.901 101.477C122.588 101.402 122.329 101.248 122.122 101.016C121.838 100.872 121.627 100.698 121.489 100.496C121.351 100.293 121.196 100.155 121.025 100.08C120.297 99.3972 119.634 98.6097 119.034 97.7175C118.426 96.8426 117.962 95.9385 117.642 95.0052C117.321 94.0719 117.231 93.1676 117.372 92.2923ZM119.105 92.8634C118.965 93.006 118.926 93.2945 118.989 93.7288C119.068 94.1706 119.213 94.6508 119.422 95.1694C119.649 95.6954 119.883 96.1536 120.126 96.5441C120.21 96.6824 120.36 96.8802 120.577 97.1373C120.786 97.4117 120.995 97.6652 121.201 97.8976C121.401 98.1473 121.531 98.2957 121.593 98.3427C121.956 98.6842 122.323 98.9455 122.692 99.1266C123.072 99.3324 123.346 99.401 123.516 99.3324C123.817 99.2396 123.997 98.9515 124.056 98.4682C124.107 98.0021 124.075 97.5198 123.958 97.0212C123.867 96.6559 123.697 96.2866 123.447 95.9134C123.208 95.565 122.997 95.219 122.816 94.8756C122.69 94.8408 122.601 94.7616 122.551 94.6381C122.494 94.5319 122.441 94.417 122.391 94.2935C122.056 93.8831 121.714 93.5615 121.366 93.3286C121.036 93.1032 120.827 92.9719 120.742 92.9346C120.468 92.8155 120.168 92.7357 119.841 92.6953C119.514 92.6549 119.269 92.7109 119.105 92.8634Z" fill="#A86649"/>
<path d="M115.849 95.8987C115.92 95.8559 116.037 95.8099 116.2 95.7607C116.353 95.7273 116.501 95.7018 116.644 95.6842C116.721 95.6676 116.784 95.6536 116.835 95.6425C116.902 95.6416 116.953 95.6305 116.988 95.6091C117.097 95.6809 117.161 95.756 117.178 95.8342C117.185 95.9283 117.2 96.0275 117.223 96.1318C117.276 96.2566 117.259 96.3902 117.17 96.5326C117.081 96.675 117.05 96.8115 117.079 96.9419C117.103 97.36 117.131 97.7912 117.161 98.2355C117.191 98.6797 117.29 99.1021 117.457 99.5027C117.631 99.9294 117.827 100.371 118.047 100.829C118.267 101.286 118.484 101.731 118.699 102.162C118.768 102.297 118.899 102.528 119.09 102.855C119.282 103.182 119.471 103.496 119.657 103.797C119.848 104.124 119.994 104.332 120.093 104.419C120.229 104.308 120.352 104.199 120.462 104.093C120.579 104.013 120.687 103.928 120.787 103.838C121.095 103.839 121.269 103.842 121.31 103.846C121.367 103.861 121.52 103.951 121.77 104.115C121.957 104.238 122.009 104.418 121.927 104.654C121.749 105.185 121.567 105.635 121.38 106.003C121.184 106.388 121.023 106.785 120.899 107.194C120.823 107.457 120.678 107.741 120.464 108.048C120.25 108.354 119.982 108.624 119.659 108.858C119.508 108.96 119.355 109.027 119.202 109.061C119.049 109.094 118.886 109.109 118.711 109.106C118.302 109.127 117.996 109.071 117.793 108.938C117.581 108.82 117.391 108.684 117.223 108.529C117.056 108.375 116.83 108.26 116.547 108.185C116.195 107.797 115.89 107.44 115.632 107.114C115.39 106.798 115.158 106.501 114.936 106.221C114.731 105.952 114.536 105.7 114.351 105.467C114.167 105.235 113.972 105.017 113.768 104.816C113.558 104.589 113.358 104.345 113.168 104.086C112.978 103.827 112.765 103.587 112.53 103.365C112.347 103.2 112.258 103.008 112.264 102.788C112.259 102.584 112.273 102.369 112.304 102.144C112.328 102.07 112.412 101.97 112.558 101.842C112.71 101.741 112.88 101.663 113.068 101.608C113.269 101.673 113.435 101.76 113.566 101.868C113.696 101.977 113.817 102.1 113.927 102.24C114.022 102.37 114.249 102.641 114.606 103.055C114.964 103.469 115.366 103.935 115.812 104.452C116.259 104.969 116.672 105.453 117.051 105.903C117.43 106.353 117.698 106.663 117.855 106.834C118.055 107.077 118.227 107.224 118.372 107.275C118.507 107.341 118.638 107.394 118.767 107.434C119.1 107.184 119.283 106.98 119.315 106.823C119.353 106.692 119.411 106.529 119.489 106.334C119.476 106.214 119.446 106.104 119.397 106.006C119.349 105.907 119.291 105.824 119.223 105.757C118.879 105.285 118.615 104.899 118.429 104.598C118.233 104.313 118.061 104.043 117.912 103.789C117.778 103.545 117.631 103.269 117.471 102.963C117.301 102.672 117.062 102.28 116.754 101.787C116.552 101.476 116.394 101.149 116.279 100.805C116.154 100.477 116.003 100.155 115.827 99.8379L115.663 99.3614C115.653 99.3772 115.631 99.2729 115.595 99.0484C115.559 98.824 115.524 98.5995 115.488 98.375C115.443 98.1664 115.42 98.0621 115.42 98.0621L115.319 96.957C115.306 96.8369 115.359 96.6819 115.478 96.492C115.597 96.3021 115.721 96.1043 115.849 95.8987Z" fill="#A86649"/>
<path d="M110.339 104.21C110.488 104.044 110.64 103.917 110.793 103.83C110.947 103.77 111.096 103.744 111.239 103.751C111.384 103.785 111.529 103.819 111.674 103.853C111.833 103.9 111.992 103.96 112.152 104.034C112.235 104.164 112.288 104.329 112.309 104.528C112.331 104.728 112.219 104.867 111.975 104.944C111.95 104.972 111.911 104.987 111.859 104.989C111.807 104.991 111.749 105 111.684 105.016C111.454 105.748 111.379 106.447 111.46 107.112C111.541 107.804 111.676 108.52 111.864 109.261C112.143 109.089 112.464 108.955 112.825 108.86C113.174 108.778 113.473 108.765 113.724 108.822C114.066 108.888 114.405 109.04 114.741 109.28C115.077 109.52 115.272 109.639 115.324 109.637C115.483 110.018 115.646 110.312 115.811 110.519C115.964 110.74 116.098 110.968 116.212 111.204C116.34 111.453 116.439 111.79 116.509 112.215C116.562 112.547 116.571 112.901 116.534 113.277C116.512 113.665 116.461 114.015 116.383 114.326C116.305 114.637 116.222 114.841 116.135 114.938C115.943 115.04 115.819 115.193 115.763 115.395C115.706 115.598 115.588 115.744 115.409 115.832C115.346 115.874 115.295 115.917 115.258 115.958C115.222 116.027 115.184 116.069 115.146 116.084C114.766 116.367 114.397 116.583 114.038 116.732C113.679 116.881 113.299 116.844 112.898 116.62C112.675 116.281 112.459 115.936 112.248 115.584C112.039 115.259 111.866 114.891 111.732 114.483C111.598 114.1 111.451 113.705 111.29 113.298C111.131 112.916 111.016 112.513 110.946 112.088L110.786 112.015C110.622 112.142 110.42 112.298 110.179 112.482C109.94 112.693 109.815 112.805 109.802 112.819C109.624 112.933 109.438 113.001 109.243 113.023C109.05 113.071 108.836 113.114 108.603 113.15C108.536 113.113 108.482 113.062 108.44 112.997C108.398 112.932 108.362 112.846 108.331 112.74C108.169 112.306 108.007 111.858 107.844 111.397C107.695 110.949 107.532 110.501 107.357 110.054C107.271 109.87 107.144 109.661 106.978 109.428C106.812 109.194 106.698 108.985 106.638 108.8C106.628 108.56 106.628 108.406 106.638 108.339C106.65 108.298 106.681 108.277 106.734 108.274C106.786 108.272 106.868 108.209 106.98 108.083C107.195 107.927 107.415 107.891 107.641 107.975C107.761 108.037 107.886 108.079 108.018 108.1C108.137 108.135 108.238 108.218 108.322 108.348C108.378 108.452 108.428 108.551 108.471 108.642C108.528 108.747 108.571 108.852 108.602 108.958C108.72 109.274 108.85 109.576 108.993 109.864C109.135 110.152 109.265 110.441 109.381 110.73C109.386 110.837 109.436 110.935 109.531 111.025L109.662 110.879C109.75 110.808 109.851 110.724 109.964 110.625C110.078 110.554 110.199 110.462 110.324 110.349C110.332 110.229 110.346 110.088 110.365 109.926C110.398 109.778 110.365 109.606 110.265 109.409C110.239 109.103 110.186 108.784 110.107 108.453C110.029 108.149 109.983 107.823 109.968 107.476C109.953 107.129 109.939 106.782 109.924 106.435C109.897 106.101 109.889 105.747 109.899 105.372C109.956 104.862 110.102 104.475 110.339 104.21ZM112.335 110.706C112.287 110.788 112.281 110.962 112.318 111.228C112.357 111.521 112.409 111.826 112.475 112.144C112.541 112.489 112.606 112.794 112.67 113.059C112.747 113.336 112.799 113.501 112.828 113.554C112.8 113.528 112.837 113.613 112.936 113.81C113.036 114.006 113.156 114.235 113.298 114.497C113.427 114.772 113.549 115.028 113.663 115.264C113.777 115.499 113.841 115.624 113.855 115.637C114.139 115.571 114.331 115.483 114.431 115.372C114.531 115.26 114.622 115.103 114.704 114.899C115.03 114.256 115.179 113.615 115.152 112.974C115.138 112.346 114.949 111.719 114.583 111.092C114.221 110.546 113.808 110.209 113.346 110.081C112.885 109.98 112.548 110.189 112.335 110.706Z" fill="#A86649"/>
<path d="M98.334 114.668C98.5708 114.519 98.8803 114.346 99.2626 114.149C99.6291 113.961 100.064 113.996 100.566 114.253C100.887 114.425 101.193 114.662 101.484 114.965C101.758 115.277 101.907 115.525 101.93 115.709C102.45 117.08 102.785 118.038 102.938 118.582C103.09 119.126 103.178 119.434 103.2 119.508C103.207 119.592 103.236 119.784 103.285 120.084C103.328 120.41 103.361 120.61 103.384 120.684C103.459 120.99 103.608 121.293 103.832 121.593C103.925 121.711 103.984 121.828 104.01 121.944C104.03 122.086 104.017 122.226 103.97 122.366C103.827 122.744 103.777 123.15 103.821 123.586C103.841 123.728 103.869 123.974 103.906 124.326C103.937 124.704 103.963 125.074 103.985 125.435C104 125.823 104.002 126.098 103.99 126.26C103.93 126.739 103.903 127.22 103.909 127.701C103.909 128.209 103.833 128.698 103.681 129.169C103.687 129.651 103.619 130.135 103.476 130.623C103.343 131.126 103.195 131.605 103.033 132.061C102.871 132.516 102.753 132.899 102.679 133.211C102.649 133.341 102.479 133.547 102.17 133.83C101.855 134.14 101.606 134.396 101.424 134.599C101.358 134.707 101.152 134.782 100.807 134.823C100.471 134.881 100.205 134.872 100.008 134.798C99.5913 134.575 99.2999 134.362 99.1337 134.158C98.9518 133.964 98.8248 133.68 98.7527 133.306C98.6744 132.958 98.5947 132.391 98.5136 131.603C98.4448 130.764 98.5294 129.872 98.7675 128.927C98.9993 128.008 99.2902 127.152 99.6402 126.357C99.7767 125.896 99.9434 125.448 100.14 125.015C100.321 124.592 100.525 124.187 100.751 123.802C100.889 123.561 101.039 123.322 101.203 123.087C101.35 122.861 101.51 122.639 101.683 122.419C101.775 122.317 101.839 122.189 101.876 122.033C101.922 121.893 101.929 121.723 101.896 121.523C101.856 121.24 101.796 121.013 101.716 120.843C101.63 120.699 101.605 120.549 101.642 120.393C101.66 120.315 101.616 120.078 101.509 119.682C101.396 119.312 101.26 118.869 101.101 118.351C100.936 117.859 100.77 117.401 100.603 116.977C100.445 116.569 100.319 116.306 100.227 116.188C100.163 116.118 100.094 116.04 100.021 115.954C99.941 115.894 99.8315 115.875 99.6922 115.897C99.4843 116.094 99.3429 116.294 99.2681 116.495C99.2029 116.713 99.146 116.981 99.0973 117.298C99.0521 117.658 99.0322 118.024 99.0378 118.395C99.0275 118.777 99.0537 119.147 99.1162 119.504C99.1588 119.72 99.2219 119.934 99.3057 120.146C99.3991 120.374 99.4544 120.593 99.4716 120.803C99.6926 121.171 99.8639 121.438 99.9854 121.604C100.101 121.796 100.208 121.938 100.307 122.03C100.399 122.148 100.525 122.267 100.685 122.387C100.606 122.547 100.574 122.656 100.587 122.714C100.584 122.782 100.518 122.835 100.388 122.872C100.154 122.954 99.9166 122.994 99.6757 122.991C99.419 122.999 99.151 122.969 98.8716 122.903C98.77 122.879 98.6921 122.84 98.6379 122.786C98.5837 122.731 98.5483 122.654 98.5318 122.555C98.4323 122.353 98.3406 122.146 98.2568 121.934C98.1669 121.748 98.0691 121.567 97.9633 121.391C97.9489 121.113 97.8853 120.844 97.7727 120.584C97.6698 120.34 97.5904 120.081 97.5348 119.807C97.5046 119.54 97.4743 119.272 97.4441 119.004C97.4138 118.736 97.409 118.474 97.4296 118.219C97.4075 117.747 97.4411 117.295 97.5303 116.864C97.6036 116.443 97.7072 116.035 97.841 115.642L98.334 114.668ZM102.565 124.213C102.356 124.301 102.217 124.377 102.148 124.443C102.072 124.535 102.026 124.675 102.008 124.862C101.564 125.827 101.178 126.743 100.851 127.612C100.533 128.497 100.304 129.292 100.163 130C100.015 130.733 99.9841 131.315 100.069 131.747C100.096 131.973 100.11 132.195 100.112 132.415C100.097 132.645 100.137 132.874 100.23 133.102L100.728 133.714C101.045 133.227 101.285 132.811 101.448 132.465C101.595 132.13 101.748 131.625 101.909 130.95C101.971 130.69 102.044 130.269 102.129 129.685C102.208 129.128 102.29 128.503 102.374 127.809C102.458 127.116 102.524 126.446 102.57 125.799C102.601 125.161 102.599 124.633 102.565 124.213Z" fill="#A86649"/>
<path d="M94.7247 117.884C94.8472 117.996 94.9738 118.066 95.1043 118.094C95.2416 118.139 95.3235 118.197 95.3501 118.267C95.3768 118.337 95.4121 118.403 95.456 118.466C95.4893 118.553 95.5539 118.617 95.6498 118.659C95.7764 118.729 95.8576 118.968 95.8935 119.376C95.936 119.802 95.9391 120.333 95.903 120.971C95.8734 121.626 95.8106 122.325 95.7144 123.068C95.6291 123.263 95.5604 123.502 95.5083 123.784C95.4563 124.066 95.4089 124.256 95.3662 124.354C95.3929 124.423 95.3902 124.495 95.3582 124.568C95.3328 124.659 95.2855 124.718 95.2162 124.746L95.2761 124.903C95.3094 124.99 95.288 125.169 95.212 125.441C95.1186 125.72 94.9973 126.03 94.8479 126.371C94.7052 126.73 94.5472 127.075 94.3739 127.406C94.2072 127.755 94.0572 128.016 93.9239 128.19C93.6533 128.58 93.3374 128.878 92.9762 129.083C92.5977 129.295 92.2266 129.343 91.8629 129.228C91.7909 129.196 91.671 129.144 91.5032 129.071C91.3353 128.997 91.1434 128.913 90.9276 128.819C90.7011 128.749 90.4713 128.67 90.2381 128.583L88.9471 128.105L88.9155 126.609C88.8745 125.822 88.7021 125.187 88.3985 124.705C88.0775 124.231 87.7311 123.847 87.3595 123.554C87.1996 123.397 86.9565 123.283 86.63 123.213C86.2862 123.15 85.9864 123.149 85.7306 123.212C85.5853 123.25 85.4354 123.25 85.2809 123.211C85.1263 123.172 85.0124 123.057 84.9392 122.865C84.8726 122.691 84.854 122.538 84.8833 122.405C84.9127 122.273 85.0073 122.154 85.1673 122.05C85.7124 121.751 86.3027 121.675 86.9383 121.822C87.5565 121.976 88.2266 122.371 88.9486 123.007C89.0579 123.083 89.2264 123.237 89.4542 123.467C89.6713 123.722 89.8052 123.89 89.8558 123.97C89.8918 123.855 89.9585 123.637 90.0559 123.317C90.1599 123.013 90.2439 122.789 90.3079 122.642C91.0587 120.893 91.8013 119.62 92.5357 118.823C93.2595 118.05 93.9892 117.737 94.7247 117.884ZM94.3483 119.724C94.3017 119.602 94.1198 119.675 93.8026 119.943C93.4747 120.236 93.1608 120.643 92.8608 121.166C92.4648 121.908 92.0888 122.702 91.7327 123.549C91.3594 124.402 91.0906 125.164 90.9265 125.833L90.7143 127.004C91.0407 127.336 91.3344 127.529 91.5956 127.586C91.8461 127.666 92.0406 127.679 92.1792 127.623C92.4044 127.533 92.6624 127.188 92.953 126.589C93.2264 125.996 93.4811 125.251 93.7173 124.351C93.9534 123.452 94.1369 122.494 94.2678 121.476C94.3079 121.058 94.334 120.655 94.3461 120.268C94.3476 119.906 94.3483 119.724 94.3483 119.724Z" fill="#A86649"/>
<path d="M84.7469 121.363C85.0161 121.553 85.2619 121.708 85.4845 121.828C85.691 121.97 85.8733 122.143 86.0315 122.348C86.1736 122.573 86.2998 122.895 86.4103 123.313C86.4718 123.644 86.494 123.961 86.4767 124.265C86.4595 124.569 86.4133 124.867 86.3381 125.16C86.2243 125.59 86.0999 126.012 85.9651 126.426C85.8304 126.839 85.6968 127.263 85.5644 127.695C85.398 128.301 85.2036 128.836 84.9811 129.3C84.761 129.782 84.5215 130.04 84.2625 130.075C83.9457 130.1 83.7094 130.019 83.5536 129.833C83.3817 129.668 83.1553 129.444 82.8742 129.162C82.8872 128.972 82.9281 128.778 82.9967 128.58C83.0676 128.401 83.1583 128.229 83.2687 128.063C83.4781 127.79 83.6469 127.494 83.7751 127.175C83.9033 126.856 83.9934 126.533 84.0452 126.206C84.1388 125.91 84.2325 125.615 84.3261 125.32C84.4221 125.043 84.5077 124.758 84.5828 124.466C84.8369 123.81 84.9093 123.423 84.8001 123.306C84.6909 123.189 84.4841 123.264 84.1799 123.531C83.8571 123.801 83.529 124.175 83.1955 124.654C82.908 125.051 82.6837 125.354 82.5226 125.565C82.3616 125.775 82.2121 126.002 82.0743 126.247C82.026 126.31 81.918 126.494 81.7504 126.8C81.5667 127.126 81.3842 127.461 81.2028 127.806C81.0054 128.172 80.8596 128.427 80.7653 128.572C80.6412 128.777 80.5357 128.98 80.4486 129.18C80.3639 129.399 80.2977 129.615 80.25 129.829C80.2369 130.019 80.1785 130.149 80.0746 130.22C79.9547 130.311 79.7999 130.351 79.6101 130.339C79.4108 130.253 79.2091 130.149 79.005 130.026C78.8033 129.921 78.6174 129.721 78.4473 129.423C78.3309 129.251 78.3309 128.959 78.4471 128.548C78.5449 128.139 78.6704 127.726 78.8237 127.31C78.9472 126.954 79.0324 126.594 79.0795 126.229C79.1081 125.868 79.1447 125.495 79.1894 125.113C79.2114 124.846 79.1177 124.557 78.9082 124.247C78.5574 124.445 78.3014 124.649 78.1403 124.859C77.9632 125.091 77.8057 125.329 77.6679 125.573C77.5116 125.821 77.2974 126.057 77.0254 126.282C76.9616 126.517 76.8455 126.712 76.6773 126.866C76.493 127.042 76.3793 127.255 76.3364 127.506L75.4193 128.93C75.2928 129.117 75.1896 129.338 75.1097 129.594C75.0137 129.87 74.9117 130.101 74.8037 130.285C74.6796 130.49 74.5308 130.576 74.3571 130.543C73.7574 130.418 73.328 130.08 73.069 129.532C73.0379 129.291 73.0882 128.879 73.22 128.296C73.3357 127.734 73.4051 127.178 73.4282 126.629C73.4431 126.307 73.4383 125.978 73.4137 125.642C73.3731 125.327 73.285 125.009 73.1495 124.689C72.9872 124.598 72.7986 124.595 72.5838 124.681C72.3529 124.787 72.145 124.853 71.96 124.878C71.7882 124.713 71.6935 124.491 71.6762 124.211C71.6588 123.93 71.6603 123.723 71.6805 123.588C71.8351 123.473 71.9908 123.367 72.1477 123.271C72.307 123.193 72.4896 123.149 72.6954 123.14C72.9801 123.158 73.1827 123.196 73.3032 123.255C73.4237 123.314 73.5374 123.393 73.6443 123.491C73.735 123.611 73.8824 123.732 74.0865 123.855C74.4159 124.074 74.6624 124.38 74.826 124.772C74.971 125.167 75.0896 125.575 75.1815 125.995C75.2579 126.004 75.3686 125.914 75.5135 125.724C75.6585 125.535 75.824 125.287 76.0101 124.979C76.1986 124.69 76.4113 124.369 76.6481 124.016C76.8689 123.685 77.1185 123.359 77.3971 123.039C77.5767 122.826 77.7795 122.648 78.0056 122.504C78.2342 122.379 78.5289 122.33 78.8899 122.356C79.1286 122.455 79.3455 122.605 79.5407 122.804C79.7198 123.025 79.9298 123.194 80.1709 123.312C80.2712 123.506 80.3691 123.681 80.4646 123.838C80.544 124.015 80.6141 124.194 80.675 124.374C80.7335 124.536 80.7828 124.699 80.8228 124.863C80.8652 125.045 80.8497 125.217 80.7764 125.378C80.8921 125.4 81.0028 125.309 81.1084 125.107C81.2163 124.922 81.338 124.699 81.4734 124.435C81.6112 124.191 81.7884 123.959 82.0049 123.742C82.2698 123.461 82.4909 123.205 82.668 122.974C82.8452 122.742 83.0224 122.511 83.1996 122.28C83.3767 122.049 83.5966 121.783 83.8591 121.484L84.7469 121.363Z" fill="#A86649"/>
<path d="M66.091 122.193C66.5087 121.891 66.9802 121.734 67.5055 121.723C68.0122 121.71 68.4991 121.826 68.9661 122.072C69.4316 122.336 69.8044 122.705 70.0844 123.179C70.3675 123.615 70.5344 124.097 70.5852 124.626C70.6346 125.174 70.5874 125.872 70.4437 126.722C70.3292 127.443 70.0379 128.149 69.57 128.839C69.1006 129.549 68.5542 130.167 67.931 130.695C67.2891 131.221 66.6708 131.571 66.0762 131.746C65.7821 131.908 65.5428 131.972 65.3583 131.937C65.1538 131.92 64.8484 131.875 64.4422 131.803C64.0189 131.711 63.7095 131.601 63.5139 131.471C63.2998 131.341 63.1351 131.177 63.02 130.98C62.7636 130.677 62.6002 130.382 62.5298 130.095C62.4579 129.827 62.4325 129.562 62.4536 129.302C62.5611 128.899 62.8807 128.42 63.4125 127.866C63.9242 127.329 64.5764 126.906 65.3691 126.599C65.7888 126.504 66.2397 126.486 66.7218 126.546C67.2039 126.605 67.594 126.76 67.8921 127.011C68.2334 127.189 68.4682 127.181 68.5964 126.986C68.723 126.81 68.863 126.353 69.0162 125.617C69.1478 124.916 69.1342 124.39 68.9753 124.04C68.8149 123.708 68.5789 123.5 68.2672 123.417C67.9013 123.311 67.6175 123.231 67.4159 123.176C67.1942 123.139 66.9178 123.2 66.5865 123.359C66.2738 123.52 66.0796 123.606 66.0037 123.618C65.9263 123.649 65.8674 123.682 65.8272 123.716C65.7669 123.767 65.6362 123.877 65.4352 124.048C65.2944 124.167 65.1846 124.251 65.1057 124.301C65.0253 124.369 64.9386 124.399 64.8456 124.391C64.7526 124.383 64.6726 124.329 64.6058 124.23C64.5374 124.149 64.4675 124.087 64.3961 124.044C64.2101 124.028 64.182 123.913 64.3116 123.699C64.4227 123.484 64.6398 123.231 64.963 122.94C65.2847 122.667 65.6607 122.418 66.091 122.193ZM65.6399 128.112C65.4278 128.187 65.2034 128.299 64.9666 128.448C64.7284 128.615 64.5266 128.794 64.3612 128.986C64.1757 129.195 64.077 129.374 64.0649 129.523C64.0438 129.784 64.1474 130.008 64.3757 130.196C64.6024 130.403 64.9628 130.461 65.457 130.372C65.6661 130.334 65.9099 130.214 66.1883 130.013C66.4653 129.83 66.7352 129.619 66.9981 129.379C67.2424 129.138 67.4472 128.921 67.6125 128.729C67.7593 128.535 67.8156 128.418 67.7814 128.378C67.7331 128.28 67.5811 128.192 67.3252 128.114C67.0678 128.055 66.7803 128.021 66.4626 128.013C66.1263 128.003 65.8521 128.036 65.6399 128.112Z" fill="#A86649"/>
<path d="M63.7229 120.723C63.7612 120.809 63.8035 120.876 63.8499 120.926C63.8922 120.993 63.9436 121.063 64.0041 121.134C64.0423 121.22 64.1128 121.332 64.2156 121.471C64.185 121.694 64.0906 121.989 63.9325 122.354C63.7562 122.715 63.5709 123.074 63.3764 123.431C63.1819 123.788 63.028 124.05 62.9147 124.215C62.9147 124.215 62.8346 124.359 62.6746 124.647C62.4964 124.931 62.2858 125.275 62.0428 125.678C61.7958 126.099 61.5507 126.512 61.3077 126.915C61.0425 127.332 60.8319 127.675 60.6759 127.946C60.4977 128.23 60.4086 128.372 60.4086 128.372C60.356 128.436 60.3216 128.505 60.3053 128.578C60.285 128.669 60.2606 128.778 60.2321 128.906C60.2134 129.246 60.1312 129.486 59.9856 129.624C59.8217 129.758 59.6831 129.908 59.5698 130.073C59.3739 130.008 59.2376 129.976 59.1609 129.977C59.0659 129.974 58.9701 129.932 58.8732 129.852C58.7501 129.804 58.5007 129.765 58.125 129.734C57.7493 129.704 57.3696 129.691 56.9858 129.697C56.5838 129.698 56.3131 129.712 56.1737 129.736C55.9193 129.677 55.6719 129.628 55.4316 129.591C55.1731 129.55 54.9298 129.483 54.7017 129.391C54.3928 129.319 54.1446 129.145 53.9571 128.871C53.7697 128.597 53.6448 128.386 53.5824 128.237C53.635 128.173 53.6967 128.11 53.7675 128.05C53.816 128.004 53.8646 127.958 53.9131 127.912C53.9617 127.866 54.0193 127.822 54.086 127.78C54.1951 127.806 54.4222 127.859 54.7675 127.94C55.1128 128.021 55.4894 128.09 55.8974 128.147C56.2872 128.201 56.6194 128.211 56.8942 128.18C57.1467 128.163 57.4113 128.177 57.688 128.222C57.9424 128.282 58.1888 128.292 58.4272 128.252C58.5384 128.182 58.67 128.021 58.8219 127.769C58.9737 127.518 59.1186 127.254 59.2563 126.98C59.3941 126.705 59.5065 126.502 59.5936 126.369C59.5895 126.387 59.6725 126.272 59.8426 126.025C59.9945 125.773 60.1726 125.489 60.3771 125.172C60.5635 124.852 60.7174 124.591 60.8389 124.389C60.936 124.297 61.0736 124.109 61.2518 123.825C61.43 123.54 61.5991 123.254 61.7591 122.966C61.9191 122.677 62.0336 122.465 62.1025 122.327C62.2484 122.016 62.4125 121.71 62.5947 121.408C62.7729 121.123 62.9784 120.846 63.2111 120.574C63.2838 120.591 63.3655 120.611 63.4564 120.632C63.5432 120.671 63.632 120.702 63.7229 120.723Z" fill="#A86649"/>
<path d="M56.2126 118.849C56.4382 118.938 56.6039 119.054 56.7097 119.197C56.7982 119.332 56.9082 119.516 57.0397 119.749C57.2375 120.229 57.3464 120.654 57.3665 121.024C57.3801 121.41 57.3047 121.742 57.1406 122.018C57.0358 122.137 56.969 122.261 56.9402 122.39C56.8874 122.53 56.861 122.6 56.861 122.6C56.9148 122.722 56.9211 122.784 56.8798 122.788C56.8319 122.809 56.7774 122.848 56.7163 122.904C56.6122 122.863 56.5412 122.945 56.5034 123.151C56.4854 123.304 56.3006 123.582 55.949 123.985C55.5975 124.388 55.2124 124.747 54.7939 125.063C54.6239 125.196 54.382 125.361 54.0683 125.558C53.748 125.772 53.4136 125.971 53.0652 126.154C52.6928 126.347 52.3696 126.49 52.0954 126.582C51.5232 126.777 51.0393 126.896 50.6437 126.94C50.2481 126.984 49.8429 126.974 49.4282 126.909C49.0135 126.845 48.7368 126.786 48.598 126.731C48.4418 126.669 48.2864 126.446 48.1316 126.064C47.7985 125.731 47.5913 125.408 47.5102 125.094C47.4116 124.774 47.4253 124.368 47.5513 123.876C47.6971 123.331 47.968 122.746 48.364 122.12C48.736 121.504 49.4569 120.837 50.5268 120.117C51.198 119.66 51.7751 119.347 52.2582 119.177C52.7346 119.025 53.2805 118.9 53.8958 118.803C54.3524 118.703 54.7513 118.651 55.0925 118.645C55.427 118.658 55.8004 118.725 56.2126 118.849ZM52.6657 120.634C52.0712 120.94 51.5734 121.255 51.1722 121.578C50.7537 121.893 50.3097 122.33 49.8401 122.886C49.6982 123.051 49.5658 123.269 49.4429 123.542C49.3135 123.832 49.22 124.106 49.1623 124.364C49.0808 124.633 49.0855 124.806 49.1764 124.882C49.3384 125.087 49.5768 125.221 49.8916 125.286C50.1997 125.368 50.5833 125.33 51.0425 125.171C51.7518 124.93 52.4346 124.548 53.0908 124.026C53.7404 123.52 54.4177 122.916 55.1225 122.211C55.6201 121.686 55.8721 121.204 55.8784 120.764C55.8607 120.336 55.5891 120.077 55.0638 119.989C54.5144 119.912 53.7151 120.127 52.6657 120.634Z" fill="#A86649"/>
<path d="M44.1806 111.626C44.2407 111.765 44.3083 111.91 44.3833 112.061C44.4434 112.201 44.5036 112.341 44.5637 112.48C44.609 112.609 44.6469 112.731 44.6773 112.848C44.781 113.373 44.7644 113.841 44.6274 114.253C44.4646 114.668 44.2533 115.023 43.9935 115.318C43.7338 115.613 43.4921 115.851 43.2684 116.033C43.0337 116.229 42.8835 116.373 42.8178 116.464C42.745 116.596 42.6406 116.692 42.5045 116.753C42.3575 116.828 42.2105 116.904 42.0634 116.98C41.4127 117.305 40.8391 117.572 40.3425 117.78C39.8201 117.992 39.1499 118.186 38.332 118.36C38.1881 118.368 38.0571 118.374 37.9391 118.378C37.7952 118.386 37.6677 118.371 37.5567 118.333L37.3237 117.557C37.3081 117.452 37.3258 117.348 37.3766 117.246C37.4165 117.159 37.5081 117.064 37.6512 116.962C37.7576 116.879 37.8714 116.802 37.9926 116.73C38.088 116.662 38.1928 116.612 38.307 116.582C38.7347 116.533 39.1324 116.413 39.5 116.224C39.8566 116.05 40.2261 115.874 40.6085 115.696C40.7071 115.56 40.8413 115.486 41.0109 115.475C41.1697 115.478 41.3112 115.41 41.4356 115.27C41.5123 115.164 41.6038 115.07 41.7102 114.987C41.8166 114.904 41.9284 114.813 42.0457 114.715C42.325 114.552 42.5393 114.352 42.6887 114.113C42.8382 113.875 43.0005 113.636 43.1758 113.394C43.1008 113.243 43.0242 113.126 42.9461 113.043C42.857 112.975 42.6834 112.96 42.4254 112.998C41.9421 113.029 41.5699 113.097 41.3087 113.203C41.0327 113.298 40.7863 113.415 40.5697 113.555C40.353 113.695 40.0848 113.843 39.7649 113.998C39.4302 114.142 39.0684 114.371 38.6797 114.685C38.2909 114.998 37.9483 115.312 37.6518 115.626C37.3444 115.955 37.1691 116.196 37.1261 116.351C37.0861 116.438 37.013 116.523 36.9066 116.606C36.8002 116.69 36.7681 116.829 36.8102 117.026C36.707 117.041 36.5952 117.132 36.4747 117.298C36.3542 117.464 36.2431 117.649 36.1413 117.853C36.0396 118.057 35.991 118.22 35.9957 118.34C35.5872 118.968 35.2426 119.491 34.9617 119.91C34.655 120.334 34.3846 120.691 34.1507 120.982C33.891 121.277 33.6403 121.543 33.3986 121.781C33.3508 121.815 33.1522 121.898 32.8026 122.031C32.4273 122.167 32.1106 122.255 31.8525 122.293C31.4357 122.327 30.9682 122.241 30.4499 122.034C29.9058 121.831 29.4888 121.595 29.1988 121.327C29.2246 121.324 29.141 121.248 28.9479 121.101C28.74 120.943 28.5044 120.775 28.2409 120.598C27.9775 120.421 27.7809 120.294 27.6512 120.219C27.5105 120.159 27.3698 120.099 27.229 120.038C27.0883 119.978 26.8166 119.924 26.414 119.875C26.2404 119.86 26.1275 119.809 26.0751 119.723L25.8516 118.743C26.1731 118.331 26.5071 118.093 26.8535 118.028C27.189 117.979 27.6533 118.133 28.2466 118.491C28.3357 118.559 28.4323 118.632 28.5362 118.712C28.6292 118.806 28.7386 118.878 28.8645 118.926C28.9755 118.964 29.0572 119.026 29.1095 119.113C29.147 119.189 29.2252 119.271 29.344 119.362C29.5074 119.486 29.6946 119.594 29.9056 119.684C30.1058 119.79 30.2859 119.939 30.4461 120.131C31.0903 120.387 31.654 120.499 32.1372 120.469C32.6204 120.438 33.0756 120.128 33.5028 119.538C33.8487 118.934 34.1359 118.379 34.3645 117.872C34.5782 117.355 34.8767 116.832 35.2601 116.303C35.329 116.144 35.374 116.002 35.3952 115.878C35.4163 115.753 35.5098 115.672 35.6756 115.634C35.8533 115.23 36.0626 114.861 36.3036 114.529C36.5336 114.211 36.7534 114.003 36.963 113.905C37.0694 113.822 37.2341 113.642 37.457 113.366C37.6542 113.094 37.9366 112.864 38.3041 112.674C39.1605 112.224 39.9696 111.855 40.7313 111.567C41.482 111.295 42.2691 111.178 43.0924 111.219C43.2402 111.238 43.3992 111.289 43.5697 111.371C43.7252 111.443 43.9289 111.528 44.1806 111.626Z" fill="#A86649"/>
<path d="M35.7426 103.28C35.7381 103.548 35.6872 103.861 35.59 104.22C35.4795 104.592 35.3102 104.97 35.0821 105.354C35.0017 105.486 34.8687 105.645 34.6831 105.829C34.4847 105.999 34.3521 106.13 34.2854 106.223C34.4166 106.172 34.5801 106.141 34.7758 106.131C34.9455 106.12 35.1019 106.123 35.245 106.139C35.3493 106.14 35.5706 106.157 35.909 106.19C36.2342 106.235 36.5328 106.307 36.8049 106.405C37.506 106.577 38.0107 106.8 38.3191 107.072C38.6146 107.331 38.7249 107.747 38.6502 108.32C38.6828 108.709 38.6379 109.055 38.5154 109.361C38.3802 109.652 38.0885 109.941 37.6405 110.228C37.1509 110.661 36.6361 111.04 36.0962 111.365C35.543 111.703 34.7351 112.07 33.6725 112.467C32.86 112.72 32.2573 112.897 31.8646 112.998C31.4585 113.111 31.2098 113.174 31.1183 113.186C30.8599 113.048 30.7064 112.871 30.6579 112.657C30.5961 112.455 30.6451 112.249 30.8051 112.038C30.8608 111.825 31.099 111.615 31.5196 111.408C31.9274 111.188 32.4786 110.97 33.1732 110.755C33.8032 110.498 34.4205 110.227 35.0249 109.944C35.6165 109.646 36.0842 109.353 36.428 109.065C36.7718 108.777 36.8871 108.505 36.7741 108.249C36.7251 108.061 36.5066 107.87 36.1188 107.677C35.7181 107.47 35.1263 107.386 34.3435 107.426C33.5478 107.453 32.5462 107.71 31.3387 108.198C30.9711 108.352 30.6622 108.501 30.4121 108.644C30.1488 108.8 29.8848 108.996 29.6201 109.232C29.4866 109.417 29.341 109.548 29.1833 109.625C28.9995 109.702 28.7843 109.706 28.5378 109.635C28.4203 109.646 28.2902 109.63 28.1475 109.588C27.9916 109.559 27.9339 109.498 27.9746 109.405L27.6473 109.099C27.5828 109.057 27.5839 108.991 27.6506 108.898C27.6913 108.805 27.7061 108.699 27.6951 108.578C27.6735 108.311 27.8936 108.013 28.3553 107.687C28.8171 107.361 29.5532 106.999 30.5636 106.602C31.3505 106.321 31.928 106.09 32.296 105.909C32.6513 105.714 32.9679 105.492 33.2458 105.243C33.4844 105.007 33.665 104.736 33.7874 104.43C33.9098 104.125 33.9612 103.785 33.9413 103.411C33.8932 103.169 33.9224 102.983 34.0289 102.851C34.1226 102.705 34.2554 102.561 34.4273 102.417C34.5722 102.325 34.7485 102.308 34.9561 102.365C35.1377 102.422 35.3053 102.531 35.4591 102.694C35.6128 102.857 35.7073 103.053 35.7426 103.28Z" fill="#A86649"/>
<path d="M43.2295 98.9589C43.4625 99.297 43.6244 99.6636 43.7152 100.059C43.8166 100.469 43.8266 100.911 43.745 101.385C43.5077 101.764 43.3573 102.023 43.2938 102.161C43.2561 102.303 43.2153 102.54 43.1715 102.871C43.0959 102.926 42.9311 102.999 42.677 103.091C42.4381 103.172 42.2007 103.206 41.9648 103.192C41.3644 103.143 40.7541 102.997 40.134 102.755C39.529 102.502 38.9089 102.144 38.2736 101.683C38.1904 101.628 38.0997 101.578 38.0013 101.534C37.9076 101.464 37.8342 101.39 37.7813 101.313C37.7283 101.237 37.6512 101.223 37.5499 101.274C37.438 101.309 37.3827 101.245 37.3842 101.083C37.301 101.028 37.2209 100.993 37.1437 100.98C37.0666 100.967 37.0061 100.895 36.9622 100.766C36.9622 100.766 36.8813 100.698 36.7194 100.562C36.547 100.41 36.3435 100.246 36.1091 100.07C35.8897 99.8836 35.6916 99.7276 35.5146 99.6023C35.3422 99.4506 35.256 99.3748 35.256 99.3748C34.8265 99.6396 34.3979 99.9385 33.97 100.271C33.5315 100.589 33.2911 100.947 33.2489 101.346C33.1885 101.62 33.0842 101.88 32.936 102.126C32.7773 102.356 32.6193 102.62 32.4621 102.918C32.3049 102.986 32.1544 103.014 32.0107 103.003C31.8671 102.992 31.7173 102.939 31.5615 102.844C31.2242 102.651 30.769 102.45 30.1958 102.243C29.5968 102.032 28.9397 101.851 28.2243 101.701C27.509 101.551 26.8004 101.476 26.0987 101.477C25.6481 101.481 25.3078 101.612 25.078 101.871C24.8376 102.114 24.8566 102.503 25.135 103.039C25.3468 103.346 25.691 103.615 26.1674 103.846C26.6287 104.088 27.1762 104.291 27.8099 104.454C28.0701 104.635 28.1692 104.828 28.1072 105.034C28.0302 105.251 27.9221 105.456 27.783 105.649C27.5955 105.739 27.4095 105.781 27.225 105.776C27.0254 105.783 26.828 105.776 26.6329 105.756C26.4272 105.72 26.2246 105.706 26.025 105.712C25.8798 105.633 25.7451 105.569 25.6211 105.521C25.482 105.483 25.3451 105.432 25.2105 105.369C25.0865 105.32 24.9776 105.261 24.8838 105.19C24.7643 105.116 24.6675 105.025 24.5934 104.917C24.5298 104.825 24.4512 104.743 24.3574 104.673C24.2485 104.614 24.157 104.53 24.0828 104.423C23.6153 103.678 23.4957 102.912 23.7238 102.125C23.952 101.338 24.3314 100.787 24.8622 100.472C25.3823 100.141 26.2125 99.9318 27.3528 99.8436C27.6749 99.8177 28.0757 99.8732 28.5551 100.01C29.0239 100.131 29.5011 100.281 29.9866 100.46C30.4615 100.623 30.8797 100.769 31.2412 100.899C31.5875 101.04 31.7993 101.117 31.8764 101.13C31.9474 100.872 32.1265 100.523 32.4138 100.085C32.6859 99.6573 32.9867 99.2552 33.3163 98.8784C33.6504 98.4752 33.9573 98.23 34.2371 98.1426C34.1614 97.967 34.0139 97.7858 33.7946 97.599C33.5798 97.3859 33.4248 97.2102 33.3294 97.0718C33.3702 96.835 33.4034 96.6036 33.4291 96.3777C33.4547 96.1518 33.5356 95.9895 33.6717 95.891C33.7412 95.7946 33.8403 95.7575 33.9688 95.7796C34.0868 95.7863 34.1798 95.8227 34.2479 95.8886C34.4158 96.0665 34.5981 96.3147 34.7948 96.6331C34.9914 96.9515 35.2509 97.2129 35.573 97.4174C36.0388 97.4027 36.5137 97.3354 36.9976 97.2155C37.4966 97.0846 38.035 96.9943 38.6127 96.9447C39.2055 96.8842 39.9011 96.9565 40.6997 97.1617C40.978 97.2367 41.2464 97.3304 41.5051 97.4426C41.7788 97.5439 41.9581 97.6561 42.0428 97.7791C42.2878 97.9703 42.5124 98.1648 42.7167 98.3625C42.9103 98.5449 43.0812 98.7436 43.2295 98.9589ZM42.7558 100.788C42.7861 100.766 42.7142 100.645 42.5403 100.425C42.392 100.21 42.1742 99.9763 41.8868 99.7236C41.6039 99.4446 41.3097 99.2313 41.0042 99.0839C40.6109 98.9078 40.2116 98.8052 39.8063 98.7761C39.4161 98.736 39.0086 98.7201 38.5836 98.7282C38.4097 98.7389 38.2207 98.7606 38.0165 98.7932C37.8275 98.8148 37.6415 98.8574 37.4585 98.9207C37.4117 99.1159 37.541 99.2872 37.8466 99.4346C38.1521 99.582 38.4818 99.7811 38.8358 100.032C39.2003 100.298 39.6783 100.597 40.2697 100.929C40.8656 101.235 41.4048 101.409 41.8872 101.451C42.046 101.451 42.2025 101.465 42.3568 101.491C42.511 101.518 42.663 101.558 42.8128 101.61C42.8657 101.457 42.8906 101.312 42.8875 101.176C42.8845 101.04 42.8406 100.911 42.7558 100.788Z" fill="#A86649"/>
<path d="M19.285 93.467C19.0402 93.2961 18.8837 93.0715 18.8154 92.7932C18.7303 92.5231 18.7483 92.2751 18.8693 92.0493C18.9657 91.8148 19.1716 91.6824 19.4871 91.6521C19.3708 91.6677 19.4576 91.6771 19.7475 91.6802C20.0127 91.6746 20.3608 91.67 20.7916 91.6662C21.2146 91.6455 21.6169 91.6246 21.9985 91.6035C22.3554 91.5737 22.5669 91.5633 22.6329 91.5725L22.7083 91.5354C22.5818 91.2649 22.5905 91.0631 22.7343 90.93C22.8535 90.7883 23.0175 90.6765 23.2265 90.5946C23.3548 90.7811 23.4807 90.896 23.604 90.9394C23.7105 90.991 23.8038 91.0803 23.8838 91.2074C23.9075 91.2581 23.9603 91.305 24.0422 91.3479C24.1241 91.3908 24.2025 91.4043 24.2774 91.3883C24.3356 91.3805 24.5604 91.3324 24.9517 91.2441C25.3184 91.1471 25.7265 91.0506 26.1761 90.9545C26.6009 90.8497 26.9297 90.7817 27.1624 90.7506C27.3122 90.7185 27.4527 90.7327 27.5839 90.793C27.6984 90.8615 27.7719 90.9086 27.8045 90.9342C27.8286 91.3382 27.8515 91.6076 27.8734 91.7425C27.8705 91.8686 27.851 92.003 27.8146 92.1456C27.722 92.2119 27.6047 92.2695 27.4628 92.3185C27.3041 92.3757 27.1084 92.4198 26.8758 92.451C26.5849 92.4899 26.3188 92.5375 26.0772 92.5938C25.8111 92.6414 25.4528 92.7343 25.0023 92.8724C25.0004 92.9565 25.0676 93.1003 25.2039 93.3036C25.3155 93.4983 25.4434 93.7058 25.5876 93.9261C25.7318 94.1463 25.8602 94.3328 25.9728 94.4854C26.0775 94.6211 26.1175 94.6847 26.0928 94.676C26.1658 94.7441 26.2661 94.8923 26.3935 95.1209C26.4963 95.3407 26.5947 95.5731 26.6886 95.818C26.7579 96.0543 26.7995 96.2314 26.8134 96.3493L26.96 96.4645C27.1354 96.3991 27.4223 96.3517 27.8206 96.3223C28.2022 96.3012 28.5354 96.2207 28.8202 96.0807C29.0459 95.9906 29.2795 95.9174 29.521 95.8612C29.7625 95.8049 30.0045 95.7276 30.247 95.6292C30.6235 95.465 30.8971 95.4554 31.0678 95.6002C31.2306 95.7282 31.2946 96.0191 31.2595 96.4729C31.2488 96.5822 31.2297 96.6955 31.2022 96.813C31.1668 96.9136 31.127 97.0267 31.0828 97.1524L28.958 97.6974C28.6918 97.745 28.4464 97.7928 28.2216 97.8409C27.9801 97.8971 27.743 97.9409 27.5103 97.972C27.0785 98.0178 26.6422 98.0762 26.2016 98.1472C25.753 98.2012 25.3216 98.226 24.9075 98.2216C24.9075 98.2216 24.8118 98.2374 24.6206 98.269C24.4047 98.2919 24.1681 98.3146 23.9107 98.337C23.6366 98.3677 23.4207 98.3906 23.263 98.4057C23.1052 98.4209 23.0761 98.4248 23.1757 98.4174C23.0515 98.4161 22.8232 98.4347 22.491 98.4731C22.142 98.5199 21.8137 98.5668 21.5061 98.614C21.1739 98.6524 20.9994 98.6758 20.9826 98.684C20.8663 98.6996 20.7755 98.6818 20.7104 98.6306C20.6285 98.5877 20.5639 98.5155 20.5164 98.414C20.3652 98.1348 20.3216 97.8651 20.3854 97.605C20.4324 97.3532 20.5525 97.1694 20.7457 97.0537C20.8541 97.0212 20.9502 96.9844 21.034 96.9433C21.1177 96.9021 21.1927 96.8861 21.2587 96.8952L25.067 96.646L25.268 96.5472C25.2895 96.3287 25.1916 96.0753 24.9744 95.787C24.7325 95.4899 24.572 95.2569 24.4929 95.0878C24.4366 95.0114 24.329 94.8252 24.1699 94.5291C24.0029 94.216 23.8522 93.9158 23.7178 93.6283C23.5755 93.3239 23.5088 93.1592 23.5176 93.134C22.928 93.195 22.3799 93.2564 21.8731 93.3182C21.3496 93.3883 20.7901 93.4033 20.1945 93.3632C20.153 93.3628 20.0283 93.3825 19.8203 93.4223C19.6044 93.4452 19.426 93.4601 19.285 93.467Z" fill="#A86649"/>
<path d="M25.8043 82.7423C26.2267 83.0336 26.5304 83.4249 26.7154 83.9162C26.8957 84.3894 26.9476 84.8879 26.871 85.4117C26.7764 85.9403 26.5528 86.417 26.2 86.8418C25.8832 87.2567 25.4843 87.578 25.0034 87.8055C24.5044 88.0379 23.8312 88.2306 22.984 88.3837C22.2674 88.5205 21.5065 88.4856 20.7011 88.2791C19.8777 88.0774 19.1144 87.7724 18.411 87.3641C17.703 86.9376 17.1684 86.4737 16.8073 85.9723C16.557 85.7502 16.4175 85.5463 16.3887 85.3607C16.3373 85.1619 16.2781 84.8589 16.2113 84.4515C16.1577 84.0212 16.1593 83.6919 16.2159 83.4637C16.2679 83.2175 16.3676 83.0066 16.515 82.8311C16.715 82.4866 16.9384 82.2324 17.1852 82.0686C17.414 81.9096 17.6545 81.7959 17.9067 81.7273C18.3217 81.6918 18.8781 81.8306 19.5761 82.1438C20.2514 82.4437 20.8651 82.9151 21.4171 83.5581C21.646 83.9214 21.8123 84.3404 21.9159 84.8152C22.0195 85.2899 22.0029 85.7103 21.8663 86.0763C21.811 86.4588 21.8965 86.6774 22.1227 86.7319C22.3309 86.7914 22.8069 86.7683 23.5508 86.6627C24.254 86.5489 24.7443 86.3575 25.0218 86.0886C25.2812 85.8246 25.3982 85.5317 25.3728 85.2098C25.3513 84.8288 25.3328 84.534 25.3174 84.3254C25.2793 84.1036 25.1304 83.8636 24.8708 83.6054C24.6159 83.3652 24.47 83.2115 24.4333 83.1441C24.3786 83.0816 24.3285 83.0372 24.2831 83.0108C24.2151 82.9713 24.0676 82.8857 23.8407 82.7539C23.6819 82.6617 23.5661 82.5868 23.4934 82.5292C23.4026 82.4766 23.3455 82.405 23.3221 82.3147C23.2988 82.2243 23.3228 82.1307 23.3941 82.034C23.4475 81.9421 23.4828 81.8551 23.5001 81.773C23.4533 81.5923 23.5521 81.5268 23.7963 81.5764C24.0358 81.608 24.3461 81.7267 24.7271 81.9326C25.0902 82.1434 25.4492 82.4133 25.8043 82.7423ZM20.0833 84.327C19.9418 84.1527 19.7619 83.9792 19.5437 83.8064C19.3074 83.6385 19.0715 83.5093 18.836 83.4186C18.5777 83.3147 18.3766 83.2824 18.2325 83.3216C17.9803 83.3901 17.8036 83.5639 17.7022 83.8429C17.5829 84.1268 17.6471 84.4866 17.8948 84.9222C18.0002 85.1062 18.1938 85.2954 18.4754 85.4896C18.739 85.6887 19.0273 85.8715 19.3403 86.0378C19.6486 86.1861 19.9205 86.3056 20.156 86.3963C20.3869 86.4689 20.5157 86.4822 20.5424 86.4363C20.6184 86.3576 20.6507 86.1844 20.6393 85.9167C20.6098 85.6539 20.5463 85.3713 20.4488 85.069C20.3466 84.7486 20.2248 84.5013 20.0833 84.327Z" fill="#A86649"/>
<path d="M24.9415 77.4156C25.0804 77.9467 25.0944 78.4421 24.9836 78.9018C24.8542 79.3631 24.6155 79.7499 24.2674 80.0621C23.8991 80.3574 23.4174 80.5316 22.8225 80.5848C22.2694 80.6904 21.6225 80.6827 20.8815 80.5615C20.122 80.4419 19.3554 80.2387 18.5816 79.9518C17.8063 79.6463 17.1308 79.3037 16.5553 78.9241C16.0774 78.592 15.6367 78.2565 15.2333 77.9178C14.8298 77.579 14.5503 77.2667 14.3948 76.9807C14.2611 76.7303 14.1755 76.4943 14.1379 76.2728C14.0802 76.0343 14.045 75.8407 14.0323 75.6919C14.0814 75.3876 14.1939 75.059 14.37 74.7059C14.5259 74.3359 14.7153 74.1409 14.9385 74.121C14.9385 74.121 14.9648 74.0999 15.0174 74.0577C15.0498 73.9986 15.066 73.969 15.066 73.969C15.0565 73.8574 15.1695 73.7536 15.4049 73.6576C15.6387 73.543 15.9128 73.4623 16.2273 73.4155C16.5232 73.3703 16.7781 73.3943 16.9922 73.4877C17.3517 73.5305 17.6696 73.6333 17.9457 73.796C18.2218 73.9587 18.3662 74.1145 18.3789 74.2633C18.3852 74.3377 18.4008 74.4113 18.4257 74.484C18.4305 74.5398 18.4793 74.5635 18.5723 74.5552C18.6653 74.5469 18.7072 74.5994 18.6981 74.7127C18.6874 74.8073 18.6403 74.9146 18.5568 75.0345C18.4548 75.1561 18.3318 75.2514 18.1878 75.3205C18.0948 75.3288 17.9336 75.3057 17.7042 75.2513C17.4747 75.1968 17.1802 75.1482 16.8206 75.1053C16.2905 75.0403 15.9567 75.0795 15.819 75.223C15.6627 75.3681 15.6748 75.62 15.8552 75.9787C16.155 76.4205 16.5555 76.8345 17.0567 77.2207C17.5563 77.5884 18.193 77.9156 18.9668 78.2026C19.7219 78.4912 20.6599 78.7259 21.7806 78.9069C22.2177 78.9803 22.5935 78.9935 22.908 78.9467C23.2209 78.8812 23.3843 78.8198 23.3981 78.7623C23.4503 78.4953 23.4389 78.1402 23.3637 77.6972C23.27 77.2558 23.1586 76.9378 23.0297 76.7431C22.8556 76.4588 22.6319 76.1415 22.3586 75.7911C22.0667 75.4424 21.8066 75.1376 21.5783 74.8769C21.5146 74.7889 21.4122 74.6856 21.271 74.5671C21.1298 74.4485 21.0156 74.3181 20.9286 74.176C20.6928 74.0471 20.5516 73.9286 20.5049 73.8203C20.4583 73.712 20.4254 73.5463 20.4065 73.3231C20.431 73.171 20.4749 73.0265 20.5382 72.8896C20.6015 72.7528 20.6687 72.6625 20.74 72.6186C20.8096 72.5562 20.877 72.5783 20.9423 72.6849C20.9486 72.7593 20.9805 72.8033 21.0378 72.8169C21.075 72.8136 21.0936 72.8119 21.0936 72.8119C21.1648 72.7681 21.33 72.8376 21.5891 73.0206C21.828 73.1867 22.0996 73.406 22.4038 73.6787C22.708 73.9514 22.9742 74.2181 23.2024 74.4788C23.4105 74.7226 23.5193 74.9003 23.5288 75.0118C23.5446 75.1978 23.6083 75.2859 23.7198 75.2759C23.757 75.2726 23.8618 75.4038 24.0343 75.6695C24.2052 75.9166 24.38 76.2102 24.5588 76.5503C24.736 76.8717 24.8636 77.1602 24.9415 77.4156Z" fill="#A86649"/>
</svg>
